<?xml version="1.0" standalone="no"?>
<!DOCTYPE svg PUBLIC "-//W3C//DTD SVG 1.1//EN" "http://www.w3.org/Graphics/SVG/1.1/DTD/svg11.dtd">
<svg xmlns="http://www.w3.org/2000/svg">
<defs >
<font id="Literata" horiz-adv-x="598" ><font-face
    font-family="Literata"
    units-per-em="1000"
    panose-1="0 0 0 0 0 0 0 0 0 0"
    ascent="1177"
    descent="-308"
    alphabetic="0" />
<glyph unicode=" " horiz-adv-x="190" />
<glyph unicode="!" horiz-adv-x="344" d="M120 533Q119 570 119 596T121 644Q123 677 142 696T195 715Q218 715 243 705T284 676Q264 617 250 563T227 454T211 335T201 194H129L120 533ZM75 61Q75 98 101 120T167 142Q206 142 229 120T253 62Q253 25 227 5T161
-15Q122 -15 99 4T75 61Z" />
<glyph unicode="&quot;" horiz-adv-x="402" d="M173 547H126L101 705Q100 715 101 724Q102 746 119 763T167 780Q190 780 203 769T216 740Q216 729 212 714L173 547ZM325 547H278L253 705Q252 715 253 724Q254 746 271 763T319 780Q342 780 355 769T368 740Q368
729 364 714L325 547Z" />
<glyph unicode="#" horiz-adv-x="674" d="M137 0L162 136H49L64 201H175L206 363H91L105 429H218L241 550H325L302 429H456L478 550H563L540 429H645L632 363H529L498 201H608L595 136H486L460 0H376L402 136H247L221 0H137ZM289 363L259 201H414L445 363H289Z" />
<glyph unicode="$" horiz-adv-x="521" d="M238 -84L268 795H321L291 -84H238ZM501 207Q501 143 467 93T373 15T236 -14Q176 -14 130 2T57 48T31 115Q31 153 53 176T111 199Q132 199 155 188T189 162L174 132Q157 98 175 80T248 61Q311 61 345 92T380 179Q380 204
368 224T328 263T250 304Q184 334 145 364T87 430T69 513Q69 574 98 619T181 689T305 715Q364 715 407 698T475 649T500 576Q500 545 479 525T425 504Q406 504 386 512T354 532L375 575Q391 608 372 626T300 644Q244 644 213 619T181 548Q181 525 193 505T235 466T315
422Q384 390 424 358T483 290T501 207Z" />
<glyph unicode="%" horiz-adv-x="807" d="M560 597H637L256 -11H178L560 597ZM45 429Q45 491 68 528T128 581T203 597Q239 597 271 581T323 531T343 443Q343 388 322 351T265 294T187 274Q120 274 83 318T45 429ZM134 433Q134 387 147 361T193 334Q223 334 237
358T252 442Q252 490 239 514T194 539Q166 539 150 516T134 433ZM469 141Q469 203 492 240T552 293T627 309Q663 309 695 293T747 243T767 155Q767 100 746 63T689 6T611 -14Q544 -14 507 30T469 141ZM558 145Q558 99 571 73T617 46Q647 46 661 70T676 154Q676
202 663 226T618 251Q590 251 574 228T558 145Z" />
<glyph unicode="&amp;" horiz-adv-x="795" d="M336 -14Q219 -14 152 32T85 159Q85 228 128 276T255 347L256 355Q103 370 103 494Q103 559 141 608T248 686T403 715Q490 715 544 680T598 589Q598 558 576 537T520 516Q499 516 478 526T449 552L466 579Q487 613
468 633T395 654Q327 654 284 613T240 506Q240 451 270 422T359 392Q373 392 387 393T422 398L427 337Q331 331 277 288T222 175Q222 117 257 84T355 51Q438 51 487 93T536 208Q536 271 507 331L540 380L609 374Q637 372 646 382T646 417L629 465Q643 474 657 478T687
483Q724 483 744 463T765 407Q765 365 739 342T665 319Q645 319 625 321T587 328L585 324Q614 290 626 262T639 200Q639 137 600 89T493 14T336 -14Z" />
<glyph unicode="&apos;" horiz-adv-x="250" d="M173 547H126L101 705Q100 715 101 724Q102 746 119 763T167 780Q190 780 203 769T216 740Q216 729 212 714L173 547Z" />
<glyph unicode="(" horiz-adv-x="332" d="M50 278Q50 373 80 473T164 664T291 822L342 789Q293 715 261 625T212 439T196 254Q196 174 208 95T242 -56T296 -185L245 -216Q205 -171 170 -116T107 2T65 134T50 278Z" />
<glyph unicode=")" horiz-adv-x="332" d="M296 328Q296 234 266 134T182 -57T55 -216L4 -183Q54 -109 86 -19T134 168T150 352Q150 432 138 511T104 662T50 791L101 822Q142 777 177 722T239 604T281 472T296 328Z" />
<glyph unicode="*" horiz-adv-x="473" d="M237 632L228 727Q225 756 235 769T264 782Q274 782 288 777T310 763L279 632L362 694Q374 703 387 703T409 696T418 669Q418 663 417 652T413 633L296 596L384 556Q400 549 405 539T411 518Q411 502 396 490T358 476L274
562L286 463Q288 444 279 431T252 417Q240 417 226 424T203 444L233 565L157 503Q148 495 132 493T104 498T91 528Q91 533 92 544T96 563L215 599L132 631Q113 639 107 647T101 668Q101 682 116 695T156 711L237 632Z" />
<glyph unicode="+" horiz-adv-x="582" d="M348 265L340 81H238L246 265H74L78 354H250L257 533H359L352 354H524L520 265H348Z" />
<glyph unicode="," horiz-adv-x="292" d="M75 -168L36 -119Q82 -88 105 -62T129 -14Q129 7 103 16L66 29Q55 59 62 86T92 131T145 149Q188 149 213 122T239 51Q239 16 219 -23T161 -100T75 -168Z" />
<glyph unicode="-" horiz-adv-x="354" d="M55 333H322L318 231H51L55 333Z" />
<glyph unicode="." horiz-adv-x="296" d="M62 65Q62 103 90 126T158 150Q199 150 223 127T248 66Q248 26 221 6T152 -15Q112 -15 87 5T62 65Z" />
<glyph unicode="/" horiz-adv-x="428" d="M363 802H444L88 -110H6L363 802Z" />
<glyph unicode="0" horiz-adv-x="604" d="M47 303Q47 430 83 522T185 665T343 715Q460 715 523 634T586 401Q586 277 550 184T448 38T295 -14Q218 -14 163 24T77 133T47 303ZM329 648Q259 648 221 560T183 311Q183 179 213 118T308 56Q376 56 412 146T449 402Q449
532 421 590T329 648Z" />
<glyph unicode="1" horiz-adv-x="403" d="M183 628H56L63 687L294 715L314 692L290 71L399 55L393 0H41L47 54L163 70L183 628Z" />
<glyph unicode="2" horiz-adv-x="529" d="M38 557Q38 603 67 638T148 694T265 715Q371 715 430 666T489 527Q489 490 483 459T458 397T403 325T309 230T163 98V93H318Q361 93 386 101T426 133T455 202H514L487 0H64L57 92Q137 163 193 222T284 333T335 432T351
527Q351 586 322 618T239 650Q203 650 180 638T153 606T168 564L189 540Q174 514 155 502T110 489Q79 489 59 508T38 557Z" />
<glyph unicode="3" horiz-adv-x="522" d="M483 562Q483 504 448 458T347 384V376Q433 367 471 330T509 220Q509 155 468 102T356 17T199 -14Q118 -14 71 16T23 97Q23 132 44 153T99 175Q117 175 137 164T167 139L147 104Q132 77 147 62T202 47Q254 47 290 68T345
130T365 227Q365 282 336 307T245 333Q217 333 179 327L171 383Q258 393 305 436T352 550Q352 599 322 625T237 652Q203 652 183 643T161 617T177 580L198 556Q183 528 164 516T118 503Q89 503 72 521T54 571Q54 612 82 644T158 696T266 715Q367 715 425 674T483
562Z" />
<glyph unicode="4" horiz-adv-x="561" d="M456 256H565L559 173H453L449 71L537 57L531 0H181L187 54L322 72L327 173H29L22 238L350 696L467 710L478 701L456 256ZM330 256L349 577L119 256H330Z" />
<glyph unicode="5" horiz-adv-x="527" d="M376 246Q376 313 349 344T265 375Q237 375 199 366T125 341L94 387L122 686L138 700H471L457 591H185L164 419Q197 436 238 445T320 455Q412 455 463 405T515 263Q515 181 476 119T367 21T203 -14Q123 -14 73 17T23 98Q23
133 43 155T96 177Q119 177 139 167T167 140L151 113Q133 83 147 66T204 49Q256 49 294 74T354 143T376 246Z" />
<glyph unicode="6" horiz-adv-x="555" d="M283 -14Q171 -14 108 63T45 277Q45 409 87 507T204 660T380 715Q452 715 495 683T539 597Q539 566 519 546T469 525Q451 525 429 533T396 553L415 590Q429 617 417 633T371 650Q319 650 278 616T210 516T174 361L178
358Q216 404 264 429T365 454Q447 454 492 403T537 259Q537 178 505 117T415 21T283 -14ZM285 50Q344 50 374 99T404 246Q404 314 386 346T328 379Q306 379 279 366T224 329T175 276Q173 206 185 155T223 77T285 50Z" />
<glyph unicode="7" horiz-adv-x="524" d="M142 0L136 10L452 591H210Q173 591 156 579T127 533L109 480L41 491L67 700H519L531 627L289 0H142Z" />
<glyph unicode="8" horiz-adv-x="558" d="M40 167Q40 230 73 277T180 364Q81 426 81 527Q81 584 110 626T192 692T316 715Q405 715 459 675T513 568Q513 461 385 396Q468 354 503 310T539 204Q539 141 506 92T413 14T278 -14Q207 -14 153 8T70 71T40 167ZM241
333Q201 305 181 267T161 182Q161 121 195 87T289 52Q343 52 375 87T408 180Q408 205 401 224T375 260T324 294T241 333ZM200 552Q200 513 227 486T326 424Q367 450 387 483T408 556Q408 599 380 625T304 652Q257 652 229 625T200 552Z" />
<glyph unicode="9" horiz-adv-x="548" d="M245 -14Q205 -14 165 0T93 38T43 93L86 142Q115 111 159 91T244 70Q312 70 356 140T410 337L406 340Q358 290 315 268T224 245Q139 245 93 297T46 445Q46 524 79 584T170 680T302 715Q415 715 477 640T539 427Q539 293
503 194T401 40T245 -14ZM260 320Q282 320 308 333T360 370T409 425Q409 502 396 552T358 626T294 651Q240 651 210 601T180 458Q180 385 198 353T260 320Z" />
<glyph unicode=":" horiz-adv-x="296" d="M316 65Q316 103 344 126T412 150Q453 150 477 127T502 66Q502 26 475 6T406 -15Q366 -15 341 5T316 65ZM77 456Q77 494 105 517T173 541Q214 541 238 518T263 457Q263 417 236 397T167 376Q127 376 102 396T77 456Z" />
<glyph unicode=";" horiz-adv-x="292" d="M76 456Q76 494 104 517T172 541Q213 541 237 518T262 457Q262 417 235 397T166 376Q126 376 101 396T76 456ZM75 -168L36 -119Q82 -88 105 -62T129 -14Q129 7 103 16L66 29Q55 59 62 86T92 131T145 149Q188 149 213 122T239
51Q239 16 219 -23T161 -100T75 -168Z" />
<glyph unicode="&lt;" horiz-adv-x="582" d="M457 542L496 466L174 294L489 117L442 38L66 260L69 322L457 542Z" />
<glyph unicode="=" horiz-adv-x="582" d="M73 170L77 259H523L519 170H73ZM82 356L86 445H532L528 356H82Z" />
<glyph unicode="&gt;" horiz-adv-x="582" d="M149 38L110 114L432 290L117 467L164 542L540 320L537 258L149 38Z" />
<glyph unicode="?" horiz-adv-x="520" d="M184 390Q273 413 316 453T359 552Q359 603 331 629T250 655Q214 655 193 645T169 618T185 579L206 555Q199 534 182 520T138 506Q105 506 88 524T70 571Q70 617 100 649T177 698T275 715Q337 715 384 697T459 640T486
540Q486 495 466 451T402 371T283 311L307 194H224L184 390ZM175 61Q175 98 201 120T267 142Q306 142 329 120T353 62Q353 25 327 5T261 -15Q222 -15 199 4T175 61Z" />
<glyph unicode="@" horiz-adv-x="867" d="M446 407Q475 407 502 402T552 382L605 408L638 391L628 89Q627 64 634 55T654 46Q689 46 711 99T734 240Q734 363 668 437T461 511Q377 511 310 473T204 361T164 185Q164 98 189 41T254 -50T340 -98T430 -112Q500 -112
552 -97T647 -46L686 -96Q585 -197 432 -197Q361 -197 295 -176T175 -109T91 5T60 169Q60 288 108 381T247 528T461 582Q571 582 654 545T785 432T832 244Q832 155 803 97T726 11T625 -17Q603 -17 584 -10T553 17T543 77L547 169L541 170L528 124Q512 68 489 37T438
-5T380 -17Q328 -17 298 8T254 72T241 147Q241 240 270 297T347 380T446 407ZM539 331Q525 340 500 344T458 348Q419 348 395 319T359 244T347 150Q347 107 358 81T401 55Q419 55 436 69T469 115T501 201L539 331Z" />
<glyph unicode="A" horiz-adv-x="694" d="M447 710L626 65L698 55L692 0H398L404 54L482 66L441 223H219L164 66L252 54L246 0H4L10 55L76 66L307 695L447 710ZM241 293H424L352 605H349L241 293Z" />
<glyph unicode="B" horiz-adv-x="619" d="M573 549Q573 494 532 447T421 374V369Q601 346 601 205Q601 108 518 54T282 0H28L33 54L119 69L144 627L60 644L66 700H323Q450 700 511 663T573 549ZM302 385Q440 408 440 527Q440 582 406 607T298 633H276L253 67H274Q467
67 467 208Q467 325 346 325Q331 325 320 324T300 321L302 385Z" />
<glyph unicode="C" horiz-adv-x="632" d="M476 550Q496 591 472 616T388 641Q294 641 243 561T192 331Q192 249 212 192T270 106T364 76Q417 76 460 99T551 178L603 127Q502 -14 352 -14Q257 -14 190 25T87 140T51 320Q51 443 91 531T207 667T387 715Q454 715
504 694T584 635T613 547Q613 519 593 499T544 479Q493 479 459 515L476 550Z" />
<glyph unicode="D" horiz-adv-x="734" d="M28 0L33 55L119 69L144 627L60 644L66 700H358Q524 700 616 619T709 392Q709 269 657 181T507 47T271 0H28ZM254 70H268Q411 70 488 151T566 383Q566 505 503 569T317 633H277L254 70Z" />
<glyph unicode="E" horiz-adv-x="595" d="M143 627L60 644L66 700H547L561 524L495 515L484 551Q474 583 463 600T435 623T388 630H279L269 398H489L484 321H266L255 71H380Q425 71 446 87T483 151L497 192H565L541 0H34L40 57L119 70L143 627Z" />
<glyph unicode="F" horiz-adv-x="564" d="M41 56L123 69L146 627L60 644L66 700H547L561 525L497 515L484 554Q474 585 463 601T434 623T389 630H276L265 394H478L473 318H262L252 73L379 59L373 0H35L41 56Z" />
<glyph unicode="G" horiz-adv-x="674" d="M633 335L621 60Q594 39 551 22T460 -4T368 -14Q268 -14 198 26T90 142T52 325Q52 448 93 535T211 668T398 715Q472 715 526 695T611 639T642 555Q642 524 622 503T573 481Q551 481 528 491T489 518L509 561Q527 599 499
620T405 642Q300 642 247 565T193 333Q193 249 214 191T275 102T373 71Q410 71 436 78T490 104L497 258L410 274L417 335H633Z" />
<glyph unicode="H" horiz-adv-x="769" d="M528 321H267L257 70L349 57L343 0H35L41 56L120 68L143 629L60 646L66 700H367L361 644L279 628L270 396H531L541 628L458 645L464 700H764L758 644L676 628L654 70L746 57L740 0H432L438 56L517 69L528 321Z" />
<glyph unicode="I" horiz-adv-x="371" d="M143 627L60 644L66 700H366L360 644L278 628L256 70L348 57L342 0H34L40 57L119 69L143 627Z" />
<glyph unicode="J" horiz-adv-x="367" d="M144 625L45 643L51 700H366L360 643L278 626L256 75Q254 13 236 -36T177 -132T65 -235L21 -185Q58 -142 79 -105T110 -23T123 81L144 625Z" />
<glyph unicode="K" horiz-adv-x="709" d="M593 -14Q544 -14 513 3T458 64T411 191Q395 246 380 276T344 321T292 339L294 387L536 632L466 642L475 700H713L706 643L632 628L386 386V380Q432 366 461 348T510 299T546 220Q569 153 582 120T607 75T634 64Q657 64
691 82L712 28Q694 11 660 -1T593 -14ZM34 0L40 57L119 70L143 627L60 644L66 700H365L359 644L278 627L256 70L347 57L341 0H34Z" />
<glyph unicode="L" horiz-adv-x="593" d="M40 54L119 66L143 629L60 646L66 700H387L381 646L279 628L255 71H383Q429 71 451 88T488 151L504 202H572L546 0H34L40 54Z" />
<glyph unicode="M" horiz-adv-x="947" d="M715 614L528 6L402 -11L228 602L190 70L279 56L273 0H22L28 56L110 70L150 629L66 646L72 700H331L486 140L658 700H915L909 644L837 630L857 69L945 56L939 0H644L650 56L732 69L715 614Z" />
<glyph unicode="N" horiz-adv-x="739" d="M563 151L581 627L496 644L502 700H749L743 644L663 627L638 0L503 -14L216 601L196 69L285 56L279 0H28L34 56L111 69L139 631L60 642L66 700H310L563 151Z" />
<glyph unicode="O" horiz-adv-x="718" d="M52 328Q52 449 93 535T210 668T391 715Q485 715 552 675T656 561T693 382Q693 262 652 173T536 35T359 -14Q265 -14 196 27T90 146T52 328ZM193 349Q193 210 239 136T372 62Q460 62 504 138T549 364Q549 499 505 570T377
641Q290 641 242 565T193 349Z" />
<glyph unicode="P" horiz-adv-x="609" d="M299 345Q306 344 313 344T330 344Q461 344 461 500Q461 633 298 633H276L251 69L369 55L365 0H29L34 54L120 70L145 627L61 644L67 700H343Q470 700 537 649T604 502Q604 436 571 386T479 306T343 277Q329 277 318 278T296
280L299 345Z" />
<glyph unicode="Q" horiz-adv-x="717" d="M52 338Q52 457 92 541T208 670T391 715Q487 715 554 677T657 567T693 392Q693 287 654 207T545 81T379 28V20Q426 16 460 5T524 -30Q576 -70 599 -78T629 -68L642 -27Q687 -27 712 -46T738 -99Q738 -136 711 -160T641
-185Q606 -185 566 -167T483 -114Q438 -76 412 -57T368 -32T326 -26Q310 -26 294 -29T258 -39T206 -61L175 -3Q198 8 223 18T271 32V39Q204 56 155 98T79 202T52 338ZM193 359Q193 232 238 166T372 99Q429 99 468 131T528 224T549 374Q549 507 506 574T377 641Q288
641 241 569T193 359Z" />
<glyph unicode="R" horiz-adv-x="697" d="M299 374Q373 379 414 418T455 523Q455 577 415 605T295 633H274L253 68L349 54L344 0H28L33 54L119 70L144 628L60 645L66 700H342Q470 700 533 658T596 530Q596 481 569 441T493 374T383 341V338Q425 326 452 303T496
245L551 131Q571 91 584 78T619 65Q645 65 673 82L696 31Q674 10 643 -2T577 -14Q516 -14 481 12T420 102L381 197Q356 259 338 284T294 321L299 374Z" />
<glyph unicode="S" horiz-adv-x="521" d="M501 207Q501 143 467 93T373 15T236 -14Q176 -14 130 2T57 48T31 115Q31 153 53 176T111 199Q132 199 155 188T189 162L174 132Q157 98 175 80T248 61Q311 61 345 92T380 179Q380 204 368 224T328 263T250 304Q184 334
145 364T87 430T69 513Q69 574 98 619T181 689T305 715Q364 715 407 698T475 649T500 576Q500 545 479 525T425 504Q406 504 386 512T354 532L375 575Q391 608 372 626T300 644Q244 644 213 619T181 548Q181 525 193 505T235 466T315 422Q384 390 424 358T483 290T501
207Z" />
<glyph unicode="T" horiz-adv-x="635" d="M151 56L253 69L278 630H212Q180 630 162 624T133 602T114 554L99 499L33 510L59 700H634L651 509L587 499L571 554Q562 585 552 601T524 624T478 630H414L388 68L494 56L488 0H145L151 56Z" />
<glyph unicode="U" horiz-adv-x="769" d="M649 69L732 56L725 0H538L531 12L569 365H565Q532 223 495 140T411 22T295 -14Q192 -14 148 45T111 231L134 629L61 644L67 700H355L349 644L267 627L246 230Q242 152 259 120T322 87Q360 87 391 119T447 203T491 320T524
449T547 570L556 627L478 644L484 700H756L750 644L680 627L649 69Z" />
<glyph unicode="V" horiz-adv-x="705" d="M377 112H381L565 628L481 646L487 700H734L727 642L649 625L419 -1L286 -14L96 628L23 643L30 700H327L321 643L233 630L377 112Z" />
<glyph unicode="W" horiz-adv-x="1017" d="M728 122H732L877 628L793 646L799 700H1046L1039 642L962 625L778 0L630 -10L526 367L397 -2L257 -10L96 628L23 643L30 700H330L324 643L233 630L353 114H357L491 480L441 685L577 701L728 122Z" />
<glyph unicode="X" horiz-adv-x="702" d="M188 71L266 54L260 0H12L19 58L96 74L296 353L113 629L43 643L50 700H344L338 643L262 631L394 424L536 628L457 646L463 700H711L704 642L626 625L438 359L632 72L715 57L708 0H404L410 57L483 69L343 287L188 71Z" />
<glyph unicode="Y" horiz-adv-x="686" d="M374 344H378L542 628L459 646L465 700H715L708 642L630 625L413 260L405 69L497 56L491 0H183L189 56L271 69L282 262L91 628L23 643L30 700H319L313 643L228 630L374 344Z" />
<glyph unicode="Z" horiz-adv-x="623" d="M599 642L217 72H392Q429 72 453 78T494 105T522 167L535 212H602L576 0H49L50 52L436 628H262Q226 628 206 623T175 600T153 547L138 495L69 505L95 700H593L599 642Z" />
<glyph unicode="[" horiz-adv-x="333" d="M199 -134L297 -145L288 -212H65L108 812H331L326 745L235 736L199 -134Z" />
<glyph unicode="\" horiz-adv-x="428" d="M414 -110H330L38 802H121L414 -110Z" />
<glyph unicode="]" horiz-adv-x="333" d="M150 734L52 745L61 812H284L241 -212H18L23 -145L114 -136L150 734Z" />
<glyph unicode="^" horiz-adv-x="582" d="M567 372L486 324L316 595L124 324L47 372L288 712H356L567 372Z" />
<glyph unicode="_" horiz-adv-x="500" d="M9 -111L12 -33H482L479 -111H9Z" />
<glyph unicode="`" horiz-adv-x="500" d="M363 612L334 580L181 675Q150 695 150 729Q150 752 168 770T228 791L363 612Z" />
<glyph unicode="a" horiz-adv-x="579" d="M490 108Q489 86 494 76T515 65Q525 65 536 70T558 82L582 34Q566 18 532 2T464 -14Q365 -14 374 89L390 262L383 263L361 185Q344 123 326 79T277 10T191 -14Q140 -14 105 13T51 88T32 201Q32 296 61 369T145 485T280
527Q315 527 345 519T394 502L466 525L503 512L490 108ZM217 68Q236 68 250 82T277 126T304 202T336 314L370 438Q351 448 334 452T294 456Q249 456 221 421T179 325T166 187Q166 127 175 98T217 68Z" />
<glyph unicode="b" horiz-adv-x="577" d="M280 -14Q247 -14 205 -8T124 10T64 33L89 692L9 713L15 767H191L207 756L195 425L165 190L173 188L210 326Q229 397 251 441T306 506T386 527Q467 527 504 467T542 308Q542 204 509 132T417 23T280 -14ZM362 438Q343
438 330 428T305 393T278 321T242 203L204 75Q215 69 232 63T279 56Q314 56 338 77T378 133T401 212T408 301Q408 332 406 363T395 416T362 438Z" />
<glyph unicode="c" horiz-adv-x="503" d="M294 527Q340 527 377 512T436 467T458 391Q458 358 438 337T385 316Q362 316 341 329T311 363L334 391Q354 415 352 430T334 452T297 460Q251 460 223 430T181 348T168 228Q168 183 177 148T209 92T268 72Q312 72 344
95T400 143L442 99Q433 87 416 68T375 31T318 -1T246 -14Q178 -14 131 15T59 98T34 226Q34 312 63 380T151 487T294 527Z" />
<glyph unicode="d" horiz-adv-x="580" d="M491 108Q490 86 495 76T516 65Q526 65 537 70T559 82L583 34Q572 24 553 13T511 -6T465 -14Q410 -14 391 15T375 89L391 262L384 263L362 185Q345 123 327 79T278 10T192 -14Q141 -14 106 13T52 88T33 201Q33 296 62
369T146 485T281 527Q316 527 346 519T395 502L403 690L307 711L315 767H488L511 749L491 108ZM218 68Q234 68 246 77T271 112T299 187T337 314L371 438Q352 448 335 452T295 456Q250 456 222 421T180 325T167 187Q167 119 178 94T218 68Z" />
<glyph unicode="e" horiz-adv-x="491" d="M290 527Q366 527 406 493T446 394Q446 352 426 320T362 263T251 221L167 199Q171 157 185 129T222 86T278 71Q308 71 339 86T403 132L442 81Q420 54 387 33T317 -1T243 -14Q179 -14 132 15T60 98T34 225Q34 317 65 385T154
490T290 527ZM323 395Q323 426 311 443T276 460Q233 460 204 408T169 269L223 283Q278 297 300 322T323 395Z" />
<glyph unicode="f" horiz-adv-x="353" d="M304 726Q264 726 247 690T227 602L222 513H336L332 449H222L210 139Q208 74 197 21T164 -80T108 -173Q89 -199 64 -214T8 -229Q-24 -229 -44 -213T-65 -171Q-65 -139 -36 -97L11 -117Q44 -131 58 -121T76 -80Q78 -55
80 -32T83 23L98 449H17L24 506L100 514L103 559Q108 623 132 673T201 753T310 782Q345 782 380 771T440 735T464 669Q464 636 446 618T395 600Q378 600 361 607T333 628L344 658Q369 726 304 726Z" />
<glyph unicode="g" horiz-adv-x="568" d="M391 263L384 264L363 189Q342 113 320 69T269 6T196 -13Q139 -13 103 17T50 97T33 206Q33 300 63 372T147 485T274 527Q300 527 334 521T397 503L464 528L504 518L488 81Q486 19 467 -37T410 -136T317 -205T187 -230Q148
-230 111 -219T49 -185T25 -125Q25 -91 45 -70T99 -49Q115 -49 135 -57T165 -77L156 -103Q144 -136 154 -151T203 -167Q281 -167 323 -103T375 76L391 263ZM218 68Q235 68 248 79T274 118T301 194T337 316L371 437Q352 447 337 451T299 456Q252 456 223 422T181
330T168 204Q168 137 176 103T218 68Z" />
<glyph unicode="h" d="M591 33Q576 21 554 10T507 -7T462 -14Q424 -14 404 0T377 35T372 81L396 354Q399 389 397 406T371 424Q346 424 333 394T297 287L211 0H74L100 693L14 711L22 767H204L220 756L206 409L185 162L192 160L252 366Q275 446 309 486T404 527Q478
527 503 483T522 359L501 108Q499 86 503 76T523 65Q534 65 545 70T569 83L591 33Z" />
<glyph unicode="i" horiz-adv-x="306" d="M105 412Q107 431 102 441T79 452Q71 452 56 448T24 437L9 492Q28 503 61 515T137 527Q184 527 209 500T229 414L206 108Q205 89 209 77T229 65Q245 65 256 71T281 85L304 37Q294 27 273 15T227 -5T175 -14Q119 -14 98
15T80 90L105 412ZM75 689Q75 721 96 742T151 763Q185 763 205 743T226 690Q226 658 206 637T151 616Q117 616 96 636T75 689Z" />
<glyph unicode="j" horiz-adv-x="290" d="M213 122Q211 64 197 9T159 -92T109 -172Q91 -194 67 -211T5 -229Q-29 -229 -44 -211T-60 -169Q-60 -152 -53 -133T-33 -98L17 -119Q43 -129 59 -123T80 -82Q83 -59 84 -34T87 23L101 411Q102 434 97 443T78 452Q55 452
19 436L2 492Q21 503 56 515T132 527Q180 527 204 497T224 408L213 122ZM66 689Q66 721 87 742T142 763Q176 763 196 743T217 690Q217 658 197 637T142 616Q108 616 87 636T66 689Z" />
<glyph unicode="k" horiz-adv-x="556" d="M101 692L20 713L28 767H203L219 756L199 308Q237 316 274 330T348 370Q378 390 383 405T368 434L339 452Q344 487 367 507T419 527Q457 527 475 505T493 452Q493 410 467 382T388 320Q374 311 360 304T330 289L424 125Q441
94 454 79T487 64Q502 64 512 68T535 80L562 34Q547 20 515 3T441 -14Q401 -14 374 4T323 66L223 250Q216 248 210 247T196 243L185 0H72L101 692Z" />
<glyph unicode="l" horiz-adv-x="294" d="M96 692L14 713L22 767H202L218 756L196 106Q195 86 200 75T222 64Q235 64 248 70T275 86L298 38Q288 29 268 17T220 -4T165 -14Q116 -14 93 12T71 90L96 692Z" />
<glyph unicode="m" horiz-adv-x="901" d="M399 344Q403 385 401 404T376 424Q362 424 353 415T334 382T312 316L215 0H78L94 416Q95 437 90 445T69 453Q60 453 48 449T19 437L3 492Q20 502 41 509T87 522T135 527Q178 527 197 500T212 419L190 162L197 160L257
366Q282 451 313 489T406 527Q462 527 491 491T509 374L481 156L489 154L555 362Q581 445 616 486T713 527Q781 527 805 485T825 374L804 110Q803 88 806 77T826 65Q848 65 873 83L894 32Q877 19 855 9T809 -8T763 -14Q716 -14 694 11T675 80L699 354Q703 395 698
409T676 424Q663 424 654 416T635 384T608 307L509 0H369L399 344Z" />
<glyph unicode="n" horiz-adv-x="603" d="M596 33Q585 23 563 12T514 -6T464 -14Q368 -14 377 82L402 363Q405 398 400 411T377 424Q364 424 355 416T336 387T314 323L215 0H79L94 417Q95 436 90 444T71 453Q61 453 49 450T19 437L3 492Q14 498 34 506T80 521T129
527Q176 527 196 501T212 425L190 162L197 160L260 375Q283 451 315 489T411 527Q478 527 505 488T528 383L506 108Q504 83 509 74T529 65Q540 65 552 70T574 82L596 33Z" />
<glyph unicode="o" horiz-adv-x="539" d="M254 -14Q148 -14 92 54T35 235Q35 291 48 343T90 437T166 503T283 527Q359 527 407 495T478 406T502 274Q502 198 477 133T397 27T254 -14ZM263 53Q307 53 329 83T360 164T368 275Q368 330 361 371T335 437T277 461Q243
461 222 442T189 390T174 317T170 234Q170 154 189 104T263 53Z" />
<glyph unicode="p" horiz-adv-x="585" d="M91 410Q92 433 88 443T67 453Q57 453 41 448T15 437L0 492Q8 498 29 506T77 520T130 527Q176 527 194 498T208 424L187 221L194 220L223 331Q238 387 256 431T306 501T397 527Q470 527 510 471T550 312Q550 218 521 144T437
28T302 -14Q267 -14 237 -6T188 11L177 -156L273 -171L265 -226H76L57 -208L75 62L91 410ZM370 440Q353 440 341 433T318 403T290 330T248 195L212 75Q231 65 248 61T288 57Q334 57 362 92T403 189T416 326Q416 356 414 377T407 413T393 433T370 440Z" />
<glyph unicode="q" horiz-adv-x="568" d="M477 -111Q476 -133 481 -142T501 -151Q512 -151 523 -146T548 -133L571 -180Q555 -196 519 -213T444 -230Q396 -230 376 -201T359 -127L372 87L391 263L384 264L363 189Q344 122 325 77T274 9T187 -14Q134 -14 100 16T49
96T33 206Q33 300 63 372T147 485T274 527Q301 527 336 521T400 502L456 528L507 518L477 -111ZM215 68Q235 68 250 81T278 124T305 201T338 316L371 437Q352 447 337 452T298 457Q251 457 222 422T180 328T167 197Q167 130 177 99T215 68Z" />
<glyph unicode="r" horiz-adv-x="491" d="M91 416Q92 431 88 442T68 453Q51 453 16 438L0 492Q23 504 46 511T93 523T136 527Q179 527 197 498T209 419L190 282L197 280L247 399Q269 450 287 477T326 516T379 527Q427 527 446 502T466 448Q466 423 447 399T394
365L381 387Q371 405 365 410T347 416Q336 416 326 407T301 369T259 283Q247 256 237 230T218 178T203 124T194 69L186 0H74L91 416Z" />
<glyph unicode="s" horiz-adv-x="456" d="M212 52Q250 52 276 68T303 120Q303 151 274 168T205 202Q171 217 136 236T78 286T54 366Q54 393 64 421T97 473T158 512T254 527Q299 527 336 515T397 480T420 423Q420 395 404 377T364 358Q345 358 326 364T299 378L309
412Q316 435 303 448T250 462Q207 462 184 444T160 401Q160 373 188 356T255 322Q290 307 325 288T383 238T407 158Q407 106 380 68T306 8T197 -14Q149 -14 110 -3T48 29T25 82Q25 114 43 131T86 148Q102 148 119 144T145 135V106Q145 77 158 65T212 52Z" />
<glyph unicode="t" horiz-adv-x="399" d="M26 507L101 515L147 674H235L226 513H362L358 449H223L208 147Q207 111 217 91T263 70Q289 70 310 81T354 115L388 71Q362 36 320 11T224 -14Q148 -14 113 26T81 133L96 449H18L26 507Z" />
<glyph unicode="u" horiz-adv-x="588" d="M3 488Q17 499 39 507T87 521T134 527Q230 527 221 431L196 150Q192 112 196 101T218 89Q229 89 236 97T253 128T274 190L373 513H509L494 99Q493 80 498 72T517 63Q533 63 544 66T569 78L591 28Q566 10 530 -2T464 -14Q416
-14 394 11T376 88L400 351L393 353L328 138Q303 54 270 20T181 -14Q123 -14 94 23T70 130L92 405Q94 428 89 438T69 448Q61 448 50 445T22 434L3 488Z" />
<glyph unicode="v" horiz-adv-x="534" d="M411 527Q455 527 476 499T498 421Q498 376 489 319T459 204T407 96T330 16T226 -14Q200 -14 173 -9T124 13T89 62T79 149L92 419Q93 441 84 448T56 450L19 439L2 494Q19 504 55 515T132 527Q182 527 202 502T220 432L204
167Q201 123 209 100T252 77Q290 77 319 105T367 179T397 273T408 362Q408 389 402 399T377 416L337 430Q328 477 352 502T411 527Z" />
<glyph unicode="w" horiz-adv-x="796" d="M482 514Q488 486 491 452T494 385Q494 330 491 285T479 190Q469 122 477 100T519 78Q555 78 583 105T630 176T660 266T671 354Q671 387 663 398T635 416L597 429Q590 476 610 501T667 527Q717 527 738 494T759 410Q759
363 750 307T720 194T669 90T595 15T497 -14Q474 -14 450 -5T407 26T384 87Q358 38 319 12T216 -14Q195 -14 170 -9T124 13T89 62T79 149L92 421Q94 445 81 449T47 447L19 438L2 495Q14 502 35 509T82 521T131 527Q180 527 201 503T221 434L206 183Q203 132 208
105T249 78Q287 78 310 100T347 162T365 254T370 366Q370 400 368 435T361 502L482 514Z" />
<glyph unicode="x" horiz-adv-x="542" d="M310 325L361 370Q387 393 393 410T383 439L352 459Q357 492 380 509T431 527Q468 527 485 507T503 461Q503 433 491 409T453 361T388 307L336 268L409 110Q421 84 431 73T458 62Q473 62 483 67T507 79L532 30Q513 14
483 0T414 -14Q374 -14 344 3T292 67L232 199L162 142Q128 114 127 94T152 64L176 55Q173 26 152 6T97 -14Q63 -14 46 7T28 56Q28 83 38 105T72 150T134 202L206 256L134 413Q124 436 115 442T94 449Q81 449 68 445T43 434L23 493Q40 502 71 514T142 527Q183 527
208 511T250 456L310 325Z" />
<glyph unicode="y" horiz-adv-x="529" d="M305 -57Q283 -107 259 -146T199 -207T109 -229Q67 -229 41 -209T15 -157Q15 -116 37 -95T100 -71L113 -104Q123 -128 133 -137T158 -147Q177 -147 189 -131T214 -88L255 0H229Q199 0 178 14T138 59Q113 101 99 177T84
349Q84 366 84 387T85 425Q85 441 80 447T63 453Q55 453 42 450T12 440L-4 495Q13 504 49 515T123 527Q174 527 194 501T212 435Q211 418 211 400T210 360Q210 272 220 212T247 111Q256 89 266 84T286 78H290L397 338Q411 373 407 389T374 415L339 428Q330 477
355 502T417 527Q454 527 476 505T498 441Q498 417 492 389T471 321T431 226L305 -57Z" />
<glyph unicode="z" horiz-adv-x="484" d="M71 513H435L451 463L162 102Q178 106 194 107T226 109Q258 109 276 103T319 96Q337 96 348 105T369 137T393 201H448L416 0Q371 -11 323 -8T229 2T144 9Q115 9 97 5T65 -7L29 46L321 415H183Q157 415 143 409T120 381T100
318L44 315L60 502L71 513Z" />
<glyph unicode="{" horiz-adv-x="372" d="M43 341Q82 341 108 359T134 435Q134 473 132 521T126 617T123 697Q123 755 161 788T265 821Q284 821 309 818T348 810L334 750Q322 753 313 754T296 756Q271 756 264 741T255 706Q254 684 255 649T257 573T259 497T260
438Q260 399 246 373T209 331T164 307Q197 292 223 262T249 181Q249 147 245 108T237 28T228 -47T224 -107Q224 -142 235 -152T266 -163Q271 -163 279 -162T304 -157L314 -216Q292 -223 268 -225T224 -228Q160 -228 127 -196T94 -108Q94 -84 98 -47T109 32T120
114T125 185Q125 224 115 242T85 264T41 269L43 341Z" />
<glyph unicode="|" horiz-adv-x="424" d="M259 -110H167L199 802H290L259 -110Z" />
<glyph unicode="}" horiz-adv-x="372" d="M344 267Q297 267 275 245T253 173Q253 145 255 108T259 32T262 -42T263 -104Q261 -162 224 -195T121 -228Q98 -228 74 -225T38 -217L52 -157Q66 -160 74 -161T90 -163Q131 -163 131 -113Q131 -91 131 -53T129 27T128
108T127 170Q127 217 152 251T223 301Q182 320 160 352T138 427Q138 461 141 498T148 572T156 642T159 700Q159 732 150 744T117 756Q110 756 100 755T79 750L69 809Q101 821 159 821Q221 821 255 790T289 701Q289 677 285 643T276 569T266 491T262 423Q262 375
280 357T346 339L344 267Z" />
<glyph unicode="~" horiz-adv-x="582" d="M425 242Q400 242 369 247T306 261T245 274T195 280Q178 280 165 270T135 230L72 256Q91 326 119 354T188 383Q212 383 243 377T308 364T370 350T420 344Q437 344 450 356T479 395L542 369Q529 319 511 292T472 253T425 242Z" />
<glyph unicode="&#xa0;" horiz-adv-x="190" />
<glyph unicode="&#xa1;" horiz-adv-x="344" d="M243 -26Q244 -63 244 -89T242 -137Q240 -170 221 -189T168 -208Q145 -208 120 -198T79 -169Q99 -110 113 -56T136 53T152 172T162 313H234L243 -26ZM288 446Q288 409 262 387T196 365Q157 365 134 387T110 445Q110
482 136 502T202 522Q241 522 264 503T288 446Z" />
<glyph unicode="&#xa2;" horiz-adv-x="503" d="M161 -40L279 653H331L213 -40H161ZM296 567Q342 567 379 552T438 507T460 431Q460 398 440 377T387 356Q364 356 343 369T313 403L336 431Q356 455 354 470T336 492T299 500Q253 500 225 470T183 388T170 268Q170
223 179 188T211 132T270 112Q314 112 346 135T402 183L444 139Q435 127 418 108T377 71T320 39T248 26Q180 26 133 55T61 138T36 266Q36 352 65 420T153 527T296 567Z" />
<glyph unicode="&#xa3;" horiz-adv-x="608" d="M65 37Q102 67 138 83T211 102Q183 148 160 191T120 270T96 335H12L19 398H82Q78 414 77 426T75 461Q75 540 107 597T198 684T339 715Q430 715 483 678T537 579Q537 547 518 527T467 506Q448 506 425 515T389 537L410
578Q427 612 408 631T340 651Q273 651 242 607T210 468Q210 460 211 437T213 398H428L424 335H222Q228 308 237 278T264 205T309 99Q323 95 336 92T360 84Q380 77 398 72T438 67Q461 67 475 80T489 113Q489 133 474 147T422 177L443 229Q521 209 556 177T592 93Q592
62 576 38T532 0T468 -14Q438 -14 409 -8T335 13Q301 25 280 30T238 35Q203 35 166 22T97 -14L65 37Z" />
<glyph unicode="&#xa4;" horiz-adv-x="539" d="M70 313Q70 342 78 367T101 415L40 497L91 546L173 478Q220 500 277 500Q331 500 370 482L458 548L505 500L440 420Q463 380 463 322Q463 290 454 263T429 212L491 130L440 81L353 151Q331 141 308 137T258 133Q203
133 164 150L75 82L28 131L94 211Q81 234 76 259T70 313ZM191 316Q191 261 208 231T261 200Q302 200 322 231T343 318Q343 377 326 403T273 430Q237 430 214 403T191 316Z" />
<glyph unicode="&#xa5;" horiz-adv-x="686" d="M85 304L95 367H311L329 304H85ZM81 178L90 241H600L599 178H81ZM398 304L435 367H605L603 304H398ZM374 344H378L542 628L459 646L465 700H715L708 642L630 625L413 260L405 69L497 56L491 0H183L189 56L271 69L282
262L91 628L23 643L30 700H319L313 643L228 630L374 344Z" />
<glyph unicode="&#xa6;" horiz-adv-x="424" d="M259 -110H167L181 289H272L259 -110ZM278 432H186L199 803H290L278 432Z" />
<glyph unicode="&#xa7;" horiz-adv-x="634" d="M564 260Q564 228 553 202T534 164L479 173Q478 215 453 243T390 293T309 334T228 378T166 438T142 527Q142 578 165 621T235 689T349 715Q402 715 442 699T504 654T527 591Q527 559 508 542T462 524Q439 524 421
533T390 554L407 588Q421 616 402 634T345 653Q297 653 275 627T253 568Q253 538 275 515T333 471T408 430T483 385T541 331T564 260ZM84 300Q84 332 95 358T114 396L169 387Q169 346 193 318T256 268T337 227T419 182T481 122T506 33Q506 -18 483 -60T413 -129T299
-155Q247 -155 207 -139T144 -94T121 -31Q121 1 141 18T186 36Q209 36 227 27T258 6L241 -28Q227 -56 246 -74T303 -93Q351 -93 373 -67T395 -8Q395 22 373 45T315 89T240 130T165 175T107 229T84 300Z" />
<glyph unicode="&#xa8;" horiz-adv-x="500" d="M102 688Q102 719 124 740T180 761Q215 761 234 743T254 694Q254 662 232 641T175 620Q141 620 122 638T102 688ZM308 688Q308 719 330 740T387 761Q422 761 441 743T460 694Q460 662 438 641T382 620Q348 620 328
638T308 688Z" />
<glyph unicode="&#xa9;" horiz-adv-x="795" d="M401 -12Q282 -12 204 31T86 150T47 319Q47 400 75 463T152 571T265 638T403 662Q510 662 589 622T711 509T755 336Q755 233 711 155T588 32T401 -12ZM396 116Q344 116 310 134T255 181T227 245T218 313Q218 385
245 433T316 506T414 531Q457 531 488 516T537 477T555 425Q555 409 545 396T515 382Q501 382 488 389T466 403L476 422Q489 445 473 462T418 480Q369 480 338 442T306 318Q306 282 316 250T349 197T406 177Q444 177 469 193T517 231L548 197Q526 169 489 143T396
116ZM401 55Q482 55 543 89T638 186T672 331Q672 412 640 472T547 565T402 599Q326 599 264 565T166 469T129 320Q129 245 158 185T248 90T401 55Z" />
<glyph unicode="&#xaa;" horiz-adv-x="446" d="M388 452Q387 436 390 429T406 421Q414 421 421 425T438 435L455 401Q436 383 411 373T362 362Q330 362 315 380T303 433L314 555H309L293 501Q283 465 270 434T234 382T172 362Q111 362 83 405T55 515Q55 582 77
633T139 713T233 742Q259 742 280 737T316 724L373 742L397 735L388 452ZM191 426Q206 426 217 438T243 488T277 600L298 676Q285 683 273 686T244 690Q214 690 193 665T162 600T151 514Q151 468 161 447T191 426Z" />
<glyph unicode="&#xab;" horiz-adv-x="509" d="M275 445Q250 396 219 350T159 269Q176 252 194 225T231 162T269 83L229 52Q180 110 129 157T27 239L39 312Q93 345 146 389T236 476L275 445ZM476 445Q451 396 420 350T360 269Q377 252 395 225T432 162T470 83L430
52Q381 110 330 157T228 239L240 312Q294 345 347 389T437 476L476 445Z" />
<glyph unicode="&#xac;" horiz-adv-x="582" d="M497 141H395L401 287H53L57 376H507L497 141Z" />
<glyph unicode="&#xad;" horiz-adv-x="377" d="M45 329H337L333 233H41L45 329Z" />
<glyph unicode="&#xae;" horiz-adv-x="463" d="M255 393Q191 393 148 417T83 484T61 579Q61 639 87 682T158 749T256 773Q345 773 397 722T450 586Q450 529 425 486T356 418T255 393ZM336 463Q345 463 358 467T380 478L375 497Q370 495 366 494T356 492Q345 492
340 502T326 535Q319 557 309 567T277 583V586Q297 589 319 602T341 646Q341 678 317 690T252 703H158L153 683L181 679L174 494L144 490L142 469H250L252 490L222 495L228 679H245Q265 679 278 671T291 640Q291 620 279 609T246 598H244L240 575Q252 573 258 566T272
534Q286 492 299 478T336 463Z" />
<glyph unicode="&#xaf;" horiz-adv-x="500" d="M137 726H431L426 635H132L137 726Z" />
<glyph unicode="&#xb0;" horiz-adv-x="328" d="M179 545Q109 545 77 579T44 661Q44 714 78 752T183 790Q249 790 282 757T316 670Q316 618 282 582T179 545ZM180 604Q202 604 219 619T237 669Q237 705 220 718T181 731Q153 731 139 715T124 667Q124 634 139 619T180 604Z" />
<glyph unicode="&#xb1;" horiz-adv-x="582" d="M352 304L345 147H243L250 304H78L82 393H254L260 553H362L356 393H528L524 304H352ZM71 0L75 89H521L517 0H71Z" />
<glyph unicode="&#xb2;" horiz-adv-x="389" d="M195 788Q153 788 137 767T142 720L158 700Q148 683 132 675T99 666Q71 666 59 683T46 720Q46 752 67 778T126 821T218 837Q299 837 341 804T383 715Q383 685 370 658T327 602T254 539T146 459H255Q284 459 300 465T327
486T345 529H391L376 374H57L52 440Q125 506 169 549T235 622T265 672T273 715Q273 745 257 766T195 788Z" />
<glyph unicode="&#xb3;" horiz-adv-x="395" d="M380 738Q380 701 354 673T287 628V622Q340 615 368 593T397 517Q397 477 370 442T294 384T174 362Q144 362 113 369T62 395T41 445Q41 468 55 485T98 502Q115 502 130 494T150 476L138 453Q130 437 140 426T179
415Q234 415 261 446T289 517Q289 555 269 571T217 588Q206 588 192 586T166 582L159 630Q221 639 248 664T275 726Q275 758 254 773T203 788Q169 788 153 773T155 737L169 722Q164 709 150 698T118 686Q87 686 76 703T64 739Q64 770 86 792T146 826T228 839Q292
839 336 816T380 738Z" />
<glyph unicode="&#xb4;" horiz-adv-x="500" d="M304 762Q316 778 327 785T353 792Q380 792 397 769T406 703L223 580L192 612L304 762Z" />
<glyph unicode="&#xb5;" horiz-adv-x="578" d="M435 -14Q409 -14 391 -5T364 20T351 61H350Q343 46 328 29T290 -1T235 -14Q214 -14 193 -7T159 10H157Q162 -74 170 -128T184 -211L55 -230L39 -219Q39 -219 38 -196T35 -139T34 -74Q34 -25 36 56T44 251T56 510L184
522L200 511Q196 485 191 441T180 346T170 243T163 152T160 89Q172 79 191 74T221 68Q281 68 305 113T334 235L347 510L475 522L491 511Q487 487 482 443T472 346T462 244T454 159T451 114Q451 84 459 75T486 65Q498 65 509 68T534 82L558 34Q536 15 501 1T435
-14Z" />
<glyph unicode="&#xb6;" horiz-adv-x="578" d="M325 -74Q327 -48 328 -25T331 23L357 700H565L559 647L476 630L457 122Q455 66 441 8T404 -100T352 -184Q313 -229 259 -229Q225 -229 205 -213T184 -171Q184 -136 211 -97L261 -120Q288 -133 305 -121T325 -74ZM287
197H271Q154 197 89 260T24 435Q24 568 93 634T301 700H313L287 197Z" />
<glyph unicode="&#xb7;" horiz-adv-x="321" d="M70 304Q70 342 98 365T166 389Q207 389 231 366T256 305Q256 265 229 245T160 224Q120 224 95 244T70 304Z" />
<glyph unicode="&#xb8;" horiz-adv-x="500" d="M287 13L267 -48Q288 -49 311 -56T351 -81T368 -132Q368 -175 335 -206T234 -238Q212 -238 187 -232T144 -217L162 -163Q174 -167 189 -170T220 -173Q240 -173 255 -164T270 -133Q270 -117 260 -110T235 -102T206
-103L196 -82L225 13H287Z" />
<glyph unicode="&#xb9;" horiz-adv-x="302" d="M238 437L317 424L315 374H50L53 424L137 437L154 765H64L70 820L242 836L257 830L238 437Z" />
<glyph unicode="&#xba;" horiz-adv-x="427" d="M223 362Q147 362 106 410T64 538Q64 592 82 638T139 712T244 741Q327 741 366 694T405 566Q405 512 386 466T327 391T223 362ZM229 415Q261 415 277 435T300 490T307 566Q307 622 293 655T237 689Q207 689 191 668T169
613T163 537Q163 479 178 447T229 415Z" />
<glyph unicode="&#xbb;" horiz-adv-x="509" d="M43 83Q69 131 100 178T162 259Q144 280 127 307T92 369T56 445L96 476Q194 359 295 289L282 216Q226 182 172 138T82 52L43 83ZM244 83Q270 131 301 178T363 259Q345 280 328 307T293 369T257 445L297 476Q395 359
496 289L483 216Q427 182 373 138T283 52L244 83Z" />
<glyph unicode="&#xbc;" horiz-adv-x="958" d="M656 714H735L321 -14H241L656 714ZM248 566L327 553L325 503H60L63 553L147 566L164 894H74L80 949L252 965L267 959L248 566ZM841 145H919L917 82H839L836 0H737L740 82H530L523 140L750 447L844 457L855 451L841
145ZM742 145L751 366L595 145H742Z" />
<glyph unicode="&#xbd;" horiz-adv-x="954" d="M632 714H711L297 -14H217L632 714ZM244 566L323 553L321 503H56L59 553L143 566L160 894H70L76 949L248 965L263 959L244 566ZM719 413Q677 413 661 392T666 345L682 325Q672 308 656 300T623 291Q595 291 583 308T570
345Q570 377 591 403T650 446T742 462Q823 462 865 429T907 340Q907 310 894 283T851 227T778 164T670 84H779Q808 84 824 90T851 111T869 154H915L900 -1H581L576 65Q649 131 693 174T759 247T789 297T797 340Q797 370 781 391T719 413Z" />
<glyph unicode="&#xbe;" horiz-adv-x="966" d="M704 714H783L369 -14H289L704 714ZM868 145H946L944 82H866L863 0H764L767 82H557L550 140L777 447L871 457L882 451L868 145ZM769 145L778 366L622 145H769ZM405 867Q405 830 379 802T312 757V751Q365 744 393
722T422 646Q422 606 395 571T319 513T199 491Q169 491 138 498T87 524T66 574Q66 597 80 614T123 631Q140 631 155 623T175 605L163 582Q155 566 165 555T204 544Q259 544 286 575T314 646Q314 684 294 700T242 717Q231 717 217 715T191 711L184 759Q246 768 273
793T300 855Q300 887 279 902T228 917Q194 917 178 902T180 866L194 851Q189 838 175 827T143 815Q112 815 101 832T89 868Q89 899 111 921T171 955T253 968Q317 968 361 945T405 867Z" />
<glyph unicode="&#xbf;" horiz-adv-x="520" d="M370 117Q281 94 238 54T195 -45Q195 -96 223 -122T304 -148Q340 -148 361 -138T385 -111T369 -72L348 -48Q355 -27 372 -13T416 1Q449 1 466 -17T484 -64Q484 -110 454 -142T377 -191T279 -208Q217 -208 170 -190T95
-133T68 -33Q68 12 88 56T152 136T271 196L247 313H330L370 117ZM379 446Q379 409 353 387T287 365Q248 365 225 387T201 445Q201 482 227 502T293 522Q332 522 355 503T379 446Z" />
<glyph unicode="&#xc0;" horiz-adv-x="694" d="M447 710L626 65L698 55L692 0H398L404 54L482 66L441 223H219L164 66L252 54L246 0H4L10 55L76 66L307 695L447 710ZM241 293H424L352 605H349L241 293ZM471 789L448 752L287 815Q258 826 249 843T239 876Q239 901
258 918T306 940L471 789Z" />
<glyph unicode="&#xc1;" horiz-adv-x="694" d="M447 710L626 65L698 55L692 0H398L404 54L482 66L441 223H219L164 66L252 54L246 0H4L10 55L76 66L307 695L447 710ZM241 293H424L352 605H349L241 293ZM417 910Q433 924 443 929T467 934Q487 934 502 920T517 880Q517
870 515 859T508 836L301 752L277 791L417 910Z" />
<glyph unicode="&#xc2;" horiz-adv-x="694" d="M447 710L626 65L698 55L692 0H398L404 54L482 66L441 223H219L164 66L252 54L246 0H4L10 55L76 66L307 695L447 710ZM241 293H424L352 605H349L241 293ZM551 787L526 750L382 832L239 751L215 787L337 921Q367 952
386 952Q394 952 400 951T411 948L551 787Z" />
<glyph unicode="&#xc3;" horiz-adv-x="694" d="M447 710L626 65L698 55L692 0H398L404 54L482 66L441 223H219L164 66L252 54L246 0H4L10 55L76 66L307 695L447 710ZM241 293H424L352 605H349L241 293ZM451 772Q429 772 409 777T362 796Q327 813 311 819T287 825Q278
825 269 817T243 784L202 807Q223 851 238 874T268 907T304 916Q319 916 337 911T396 888Q427 875 443 870T470 864Q484 864 493 871T519 902L560 879Q532 820 508 796T451 772Z" />
<glyph unicode="&#xc4;" horiz-adv-x="694" d="M447 710L626 65L698 55L692 0H398L404 54L482 66L441 223H219L164 66L252 54L246 0H4L10 55L76 66L307 695L447 710ZM241 293H424L352 605H349L241 293ZM203 839Q203 870 225 891T281 912Q316 912 335 894T355 845Q355
813 333 792T276 771Q242 771 223 789T203 839ZM409 839Q409 870 431 891T488 912Q523 912 542 894T561 845Q561 813 539 792T483 771Q449 771 429 789T409 839Z" />
<glyph unicode="&#xc5;" horiz-adv-x="694" d="M447 710L626 65L698 55L692 0H398L404 54L482 66L441 223H219L164 66L252 54L246 0H4L10 55L76 66L307 695L447 710ZM241 293H424L352 605H349L241 293ZM379 742Q316 742 287 771T257 846Q257 877 271 904T315 949T390
966Q451 966 480 936T509 858Q509 809 475 776T379 742ZM382 801Q405 801 416 817T428 857Q428 880 418 894T384 908Q359 908 348 892T337 853Q337 831 348 816T382 801Z" />
<glyph unicode="&#xc6;" horiz-adv-x="916" d="M772 700L786 524L720 515L709 551Q700 580 690 597T663 622T613 630H471L533 398H758L753 321H550L615 71H701Q747 71 767 88T804 151L818 192H886L862 0H398L404 54L482 66L441 223H219L164 66L252 54L246 0H4L10
55L76 66L308 700H772ZM241 293H424L352 605H349L241 293Z" />
<glyph unicode="&#xc7;" horiz-adv-x="632" d="M476 550Q496 591 472 616T388 641Q294 641 243 561T192 331Q192 249 212 192T270 106T364 76Q417 76 460 99T551 178L603 127Q502 -14 352 -14Q257 -14 190 25T87 140T51 320Q51 443 91 531T207 667T387 715Q454
715 504 694T584 635T613 547Q613 519 593 499T544 479Q493 479 459 515L476 550ZM384 268L364 207Q385 206 408 199T448 174T465 123Q465 80 432 49T331 17Q309 17 284 23T241 38L259 92Q271 88 286 85T317 82Q337 82 352 91T367 122Q367 138 357 145T332 153T303
152L293 173L322 268H384Z" />
<glyph unicode="&#xc8;" horiz-adv-x="595" d="M143 627L60 644L66 700H547L561 524L495 515L484 551Q474 583 463 600T435 623T388 630H279L269 398H489L484 321H266L255 71H380Q425 71 446 87T483 151L497 192H565L541 0H34L40 57L119 70L143 627ZM429 789L406
752L245 815Q216 826 207 843T197 876Q197 901 216 918T264 940L429 789Z" />
<glyph unicode="&#xc9;" horiz-adv-x="595" d="M143 627L60 644L66 700H547L561 524L495 515L484 551Q474 583 463 600T435 623T388 630H279L269 398H489L484 321H266L255 71H380Q425 71 446 87T483 151L497 192H565L541 0H34L40 57L119 70L143 627ZM375 910Q391
924 401 929T425 934Q445 934 460 920T475 880Q475 870 473 859T466 836L259 752L235 791L375 910Z" />
<glyph unicode="&#xca;" horiz-adv-x="595" d="M143 627L60 644L66 700H547L561 524L495 515L484 551Q474 583 463 600T435 623T388 630H279L269 398H489L484 321H266L255 71H380Q425 71 446 87T483 151L497 192H565L541 0H34L40 57L119 70L143 627ZM509 787L484
750L340 832L197 751L173 787L295 921Q325 952 344 952Q352 952 358 951T369 948L509 787Z" />
<glyph unicode="&#xcb;" horiz-adv-x="595" d="M143 627L60 644L66 700H547L561 524L495 515L484 551Q474 583 463 600T435 623T388 630H279L269 398H489L484 321H266L255 71H380Q425 71 446 87T483 151L497 192H565L541 0H34L40 57L119 70L143 627ZM161 839Q161
870 183 891T239 912Q274 912 293 894T313 845Q313 813 291 792T234 771Q200 771 181 789T161 839ZM367 839Q367 870 389 891T446 912Q481 912 500 894T519 845Q519 813 497 792T441 771Q407 771 387 789T367 839Z" />
<glyph unicode="&#xcc;" horiz-adv-x="371" d="M143 627L60 644L66 700H366L360 644L278 628L256 70L348 57L342 0H34L40 57L119 69L143 627ZM568 789L545 752L384 815Q355 826 346 843T336 876Q336 901 355 918T403 940L568 789Z" />
<glyph unicode="&#xcd;" horiz-adv-x="371" d="M143 627L60 644L66 700H366L360 644L278 628L256 70L348 57L342 0H34L40 57L119 69L143 627ZM514 910Q530 924 540 929T564 934Q584 934 599 920T614 880Q614 870 612 859T605 836L398 752L374 791L514 910Z" />
<glyph unicode="&#xce;" horiz-adv-x="371" d="M143 627L60 644L66 700H366L360 644L278 628L256 70L348 57L342 0H34L40 57L119 69L143 627ZM648 787L623 750L479 832L336 751L312 787L434 921Q464 952 483 952Q491 952 497 951T508 948L648 787Z" />
<glyph unicode="&#xcf;" horiz-adv-x="371" d="M143 627L60 644L66 700H366L360 644L278 628L256 70L348 57L342 0H34L40 57L119 69L143 627ZM300 839Q300 870 322 891T378 912Q413 912 432 894T452 845Q452 813 430 792T373 771Q339 771 320 789T300 839ZM506
839Q506 870 528 891T585 912Q620 912 639 894T658 845Q658 813 636 792T580 771Q546 771 526 789T506 839Z" />
<glyph unicode="&#xd0;" horiz-adv-x="734" d="M45 397H447L439 322H36L45 397ZM28 0L33 55L119 69L144 627L60 644L66 700H358Q524 700 616 619T709 392Q709 269 657 181T507 47T271 0H28ZM254 70H268Q411 70 488 151T566 383Q566 505 503 569T317 633H277L254 70Z" />
<glyph unicode="&#xd1;" horiz-adv-x="739" d="M563 151L581 627L496 644L502 700H749L743 644L663 627L638 0L503 -14L216 601L196 69L285 56L279 0H28L34 56L111 69L139 631L60 642L66 700H310L563 151ZM482 772Q460 772 440 777T393 796Q358 813 342 819T318
825Q309 825 300 817T274 784L233 807Q254 851 269 874T299 907T335 916Q350 916 368 911T427 888Q458 875 474 870T501 864Q515 864 524 871T550 902L591 879Q563 820 539 796T482 772Z" />
<glyph unicode="&#xd2;" horiz-adv-x="718" d="M52 328Q52 449 93 535T210 668T391 715Q485 715 552 675T656 561T693 382Q693 262 652 173T536 35T359 -14Q265 -14 196 27T90 146T52 328ZM193 349Q193 210 239 136T372 62Q460 62 504 138T549 364Q549 499 505
570T377 641Q290 641 242 565T193 349ZM486 789L463 752L302 815Q273 826 264 843T254 876Q254 901 273 918T321 940L486 789Z" />
<glyph unicode="&#xd3;" horiz-adv-x="718" d="M52 328Q52 449 93 535T210 668T391 715Q485 715 552 675T656 561T693 382Q693 262 652 173T536 35T359 -14Q265 -14 196 27T90 146T52 328ZM193 349Q193 210 239 136T372 62Q460 62 504 138T549 364Q549 499 505
570T377 641Q290 641 242 565T193 349ZM432 910Q448 924 458 929T482 934Q502 934 517 920T532 880Q532 870 530 859T523 836L316 752L292 791L432 910Z" />
<glyph unicode="&#xd4;" horiz-adv-x="718" d="M52 328Q52 449 93 535T210 668T391 715Q485 715 552 675T656 561T693 382Q693 262 652 173T536 35T359 -14Q265 -14 196 27T90 146T52 328ZM193 349Q193 210 239 136T372 62Q460 62 504 138T549 364Q549 499 505
570T377 641Q290 641 242 565T193 349ZM566 787L541 750L397 832L254 751L230 787L352 921Q382 952 401 952Q409 952 415 951T426 948L566 787Z" />
<glyph unicode="&#xd5;" horiz-adv-x="718" d="M52 328Q52 449 93 535T210 668T391 715Q485 715 552 675T656 561T693 382Q693 262 652 173T536 35T359 -14Q265 -14 196 27T90 146T52 328ZM193 349Q193 210 239 136T372 62Q460 62 504 138T549 364Q549 499 505
570T377 641Q290 641 242 565T193 349ZM466 772Q444 772 424 777T377 796Q342 813 326 819T302 825Q293 825 284 817T258 784L217 807Q238 851 253 874T283 907T319 916Q334 916 352 911T411 888Q442 875 458 870T485 864Q499 864 508 871T534 902L575 879Q547
820 523 796T466 772Z" />
<glyph unicode="&#xd6;" horiz-adv-x="718" d="M52 328Q52 449 93 535T210 668T391 715Q485 715 552 675T656 561T693 382Q693 262 652 173T536 35T359 -14Q265 -14 196 27T90 146T52 328ZM193 349Q193 210 239 136T372 62Q460 62 504 138T549 364Q549 499 505
570T377 641Q290 641 242 565T193 349ZM218 839Q218 870 240 891T296 912Q331 912 350 894T370 845Q370 813 348 792T291 771Q257 771 238 789T218 839ZM424 839Q424 870 446 891T503 912Q538 912 557 894T576 845Q576 813 554 792T498 771Q464 771 444 789T424
839Z" />
<glyph unicode="&#xd7;" horiz-adv-x="582" d="M290 239L143 99L80 164L226 306L86 451L157 513L291 372L441 519L503 452L352 305L494 159L426 94L290 239Z" />
<glyph unicode="&#xd8;" horiz-adv-x="721" d="M615 715H704L118 -14H28L615 715ZM52 328Q52 449 93 535T210 668T391 715Q485 715 552 675T656 561T693 382Q693 262 652 173T536 35T359 -14Q265 -14 196 27T90 146T52 328ZM193 349Q193 210 239 136T372 62Q460
62 504 138T549 364Q549 499 505 570T377 641Q290 641 242 565T193 349Z" />
<glyph unicode="&#xd9;" horiz-adv-x="769" d="M649 69L732 56L725 0H538L531 12L569 365H565Q532 223 495 140T411 22T295 -14Q192 -14 148 45T111 231L134 629L61 644L67 700H355L349 644L267 627L246 230Q242 152 259 120T322 87Q360 87 391 119T447 203T491
320T524 449T547 570L556 627L478 644L484 700H756L750 644L680 627L649 69ZM511 789L488 752L327 815Q298 826 289 843T279 876Q279 901 298 918T346 940L511 789Z" />
<glyph unicode="&#xda;" horiz-adv-x="769" d="M649 69L732 56L725 0H538L531 12L569 365H565Q532 223 495 140T411 22T295 -14Q192 -14 148 45T111 231L134 629L61 644L67 700H355L349 644L267 627L246 230Q242 152 259 120T322 87Q360 87 391 119T447 203T491
320T524 449T547 570L556 627L478 644L484 700H756L750 644L680 627L649 69ZM457 910Q473 924 483 929T507 934Q527 934 542 920T557 880Q557 870 555 859T548 836L341 752L317 791L457 910Z" />
<glyph unicode="&#xdb;" horiz-adv-x="769" d="M649 69L732 56L725 0H538L531 12L569 365H565Q532 223 495 140T411 22T295 -14Q192 -14 148 45T111 231L134 629L61 644L67 700H355L349 644L267 627L246 230Q242 152 259 120T322 87Q360 87 391 119T447 203T491
320T524 449T547 570L556 627L478 644L484 700H756L750 644L680 627L649 69ZM591 787L566 750L422 832L279 751L255 787L377 921Q407 952 426 952Q434 952 440 951T451 948L591 787Z" />
<glyph unicode="&#xdc;" horiz-adv-x="769" d="M649 69L732 56L725 0H538L531 12L569 365H565Q532 223 495 140T411 22T295 -14Q192 -14 148 45T111 231L134 629L61 644L67 700H355L349 644L267 627L246 230Q242 152 259 120T322 87Q360 87 391 119T447 203T491
320T524 449T547 570L556 627L478 644L484 700H756L750 644L680 627L649 69ZM243 839Q243 870 265 891T321 912Q356 912 375 894T395 845Q395 813 373 792T316 771Q282 771 263 789T243 839ZM449 839Q449 870 471 891T528 912Q563 912 582 894T601 845Q601 813
579 792T523 771Q489 771 469 789T449 839Z" />
<glyph unicode="&#xdd;" horiz-adv-x="686" d="M374 344H378L542 628L459 646L465 700H715L708 642L630 625L413 260L405 69L497 56L491 0H183L189 56L271 69L282 262L91 628L23 643L30 700H319L313 643L228 630L374 344ZM422 910Q438 924 448 929T472 934Q492
934 507 920T522 880Q522 870 520 859T513 836L306 752L282 791L422 910Z" />
<glyph unicode="&#xde;" horiz-adv-x="610" d="M29 0L34 54L120 70L145 627L61 644L67 700H383L376 643L274 630L271 559H337Q412 559 471 541T564 481T598 369Q598 308 566 259T475 181T337 152H255L251 69L369 55L365 0H29ZM258 219H324Q455 219 455 367Q455
417 433 444T373 481T292 492H270L258 219Z" />
<glyph unicode="&#xdf;" horiz-adv-x="615" d="M415 52Q451 52 475 72T500 126Q500 150 484 167T443 199T389 227T336 260T294 304T278 365Q278 403 293 431T331 482T376 529T413 578T429 640Q429 684 405 705T333 726Q278 726 247 692T214 602L195 122Q193 68
180 12T144 -94T86 -182Q67 -203 43 -216T-8 -229Q-39 -229 -59 -211T-79 -165Q-79 -149 -72 -132T-50 -98L-5 -116Q27 -129 43 -120T63 -78Q65 -61 66 -34T68 23L88 544Q91 616 118 669T203 752T351 782Q404 782 447 769T515 727T540 655Q540 621 525 594T486
544T441 500T403 456T387 406Q387 381 408 363T460 329T522 293T574 241T595 162Q595 114 572 74T505 10T401 -14Q314 -14 272 15T230 82Q230 114 248 131T299 148Q311 148 326 145T348 137V104Q348 76 361 64T415 52Z" />
<glyph unicode="&#xe0;" horiz-adv-x="579" d="M490 108Q489 86 494 76T515 65Q525 65 536 70T558 82L582 34Q566 18 532 2T464 -14Q365 -14 374 89L390 262L383 263L361 185Q344 123 326 79T277 10T191 -14Q140 -14 105 13T51 88T32 201Q32 296 61 369T145 485T280
527Q315 527 345 519T394 502L466 525L503 512L490 108ZM217 68Q236 68 250 82T277 126T304 202T336 314L370 438Q351 448 334 452T294 456Q249 456 221 421T179 325T166 187Q166 127 175 98T217 68ZM391 612L362 580L209 675Q178 695 178 729Q178 752 196 770T256
791L391 612Z" />
<glyph unicode="&#xe1;" horiz-adv-x="579" d="M490 108Q489 86 494 76T515 65Q525 65 536 70T558 82L582 34Q566 18 532 2T464 -14Q365 -14 374 89L390 262L383 263L361 185Q344 123 326 79T277 10T191 -14Q140 -14 105 13T51 88T32 201Q32 296 61 369T145 485T280
527Q315 527 345 519T394 502L466 525L503 512L490 108ZM217 68Q236 68 250 82T277 126T304 202T336 314L370 438Q351 448 334 452T294 456Q249 456 221 421T179 325T166 187Q166 127 175 98T217 68ZM332 762Q344 778 355 785T381 792Q408 792 425 769T434 703L251
580L220 612L332 762Z" />
<glyph unicode="&#xe2;" horiz-adv-x="579" d="M490 108Q489 86 494 76T515 65Q525 65 536 70T558 82L582 34Q566 18 532 2T464 -14Q365 -14 374 89L390 262L383 263L361 185Q344 123 326 79T277 10T191 -14Q140 -14 105 13T51 88T32 201Q32 296 61 369T145 485T280
527Q315 527 345 519T394 502L466 525L503 512L490 108ZM217 68Q236 68 250 82T277 126T304 202T336 314L370 438Q351 448 334 452T294 456Q249 456 221 421T179 325T166 187Q166 127 175 98T217 68ZM463 609L429 580L308 672L179 580L146 611L256 754Q269 771
280 779T308 787Q317 787 328 786T348 781L463 609Z" />
<glyph unicode="&#xe3;" horiz-adv-x="579" d="M490 108Q489 86 494 76T515 65Q525 65 536 70T558 82L582 34Q566 18 532 2T464 -14Q365 -14 374 89L390 262L383 263L361 185Q344 123 326 79T277 10T191 -14Q140 -14 105 13T51 88T32 201Q32 296 61 369T145 485T280
527Q315 527 345 519T394 502L466 525L503 512L490 108ZM217 68Q236 68 250 82T277 126T304 202T336 314L370 438Q351 448 334 452T294 456Q249 456 221 421T179 325T166 187Q166 127 175 98T217 68ZM378 620Q356 620 336 625T289 644Q230 673 214 673Q205 673
196 665T170 632L129 655Q150 699 165 722T195 755T231 764Q246 764 264 759T323 736Q351 724 369 718T397 712Q411 712 420 719T446 750L487 727Q459 668 435 644T378 620Z" />
<glyph unicode="&#xe4;" horiz-adv-x="579" d="M490 108Q489 86 494 76T515 65Q525 65 536 70T558 82L582 34Q566 18 532 2T464 -14Q365 -14 374 89L390 262L383 263L361 185Q344 123 326 79T277 10T191 -14Q140 -14 105 13T51 88T32 201Q32 296 61 369T145 485T280
527Q315 527 345 519T394 502L466 525L503 512L490 108ZM217 68Q236 68 250 82T277 126T304 202T336 314L370 438Q351 448 334 452T294 456Q249 456 221 421T179 325T166 187Q166 127 175 98T217 68ZM130 689Q130 720 152 741T208 762Q243 762 262 744T282 695Q282
663 260 642T203 621Q169 621 150 639T130 689ZM336 689Q336 720 358 741T415 762Q450 762 469 744T488 695Q488 663 466 642T410 621Q376 621 356 639T336 689Z" />
<glyph unicode="&#xe5;" horiz-adv-x="579" d="M490 108Q489 86 494 76T515 65Q525 65 536 70T558 82L582 34Q566 18 532 2T464 -14Q365 -14 374 89L390 262L383 263L361 185Q344 123 326 79T277 10T191 -14Q140 -14 105 13T51 88T32 201Q32 296 61 369T145 485T280
527Q315 527 345 519T394 502L466 525L503 512L490 108ZM217 68Q236 68 250 82T277 126T304 202T336 314L370 438Q351 448 334 452T294 456Q249 456 221 421T179 325T166 187Q166 127 175 98T217 68ZM294 582Q231 582 202 611T172 689Q172 719 186 745T230 789T305
806Q366 806 395 776T424 698Q424 649 390 616T294 582ZM297 641Q322 641 332 657T343 697Q343 720 333 734T299 748Q274 748 263 732T252 694Q252 671 262 656T297 641Z" />
<glyph unicode="&#xe6;" horiz-adv-x="775" d="M593 527Q664 527 697 490T730 394Q730 339 701 306T628 253T535 221L451 199Q454 166 465 137T499 89T562 71Q622 71 687 132L726 81Q704 54 672 33T603 -1T532 -14Q479 -14 441 8T381 67T350 145Q334 98 316 62T268
6T191 -14Q140 -14 105 13T51 88T32 201Q32 296 61 369T145 485T280 527Q315 527 342 520T387 504L434 532L471 519L456 473Q484 496 521 511T593 527ZM217 68Q236 68 250 82T277 126T304 202T336 314L370 438Q351 448 334 452T294 456Q249 456 221 421T179 325T166
187Q166 127 175 98T217 68ZM607 395Q607 424 595 442T560 460Q519 460 489 410T453 269L507 283Q560 297 583 321T607 395Z" />
<glyph unicode="&#xe7;" horiz-adv-x="503" d="M294 527Q340 527 377 512T436 467T458 391Q458 358 438 337T385 316Q362 316 341 329T311 363L334 391Q354 415 352 430T334 452T297 460Q251 460 223 430T181 348T168 228Q168 183 177 148T209 92T268 72Q312 72
344 95T400 143L442 99Q433 87 416 68T375 31T318 -1T246 -14Q178 -14 131 15T59 98T34 226Q34 312 63 380T151 487T294 527ZM541 268L521 207Q542 206 565 199T605 174T622 123Q622 80 589 49T488 17Q466 17 441 23T398 38L416 92Q428 88 443 85T474 82Q494 82
509 91T524 122Q524 138 514 145T489 153T460 152L450 173L479 268H541Z" />
<glyph unicode="&#xe8;" horiz-adv-x="491" d="M290 527Q366 527 406 493T446 394Q446 352 426 320T362 263T251 221L167 199Q171 157 185 129T222 86T278 71Q308 71 339 86T403 132L442 81Q420 54 387 33T317 -1T243 -14Q179 -14 132 15T60 98T34 225Q34 317
65 385T154 490T290 527ZM323 395Q323 426 311 443T276 460Q233 460 204 408T169 269L223 283Q278 297 300 322T323 395ZM369 612L340 580L187 675Q156 695 156 729Q156 752 174 770T234 791L369 612Z" />
<glyph unicode="&#xe9;" horiz-adv-x="491" d="M290 527Q366 527 406 493T446 394Q446 352 426 320T362 263T251 221L167 199Q171 157 185 129T222 86T278 71Q308 71 339 86T403 132L442 81Q420 54 387 33T317 -1T243 -14Q179 -14 132 15T60 98T34 225Q34 317
65 385T154 490T290 527ZM323 395Q323 426 311 443T276 460Q233 460 204 408T169 269L223 283Q278 297 300 322T323 395ZM310 762Q322 778 333 785T359 792Q386 792 403 769T412 703L229 580L198 612L310 762Z" />
<glyph unicode="&#xea;" horiz-adv-x="491" d="M290 527Q366 527 406 493T446 394Q446 352 426 320T362 263T251 221L167 199Q171 157 185 129T222 86T278 71Q308 71 339 86T403 132L442 81Q420 54 387 33T317 -1T243 -14Q179 -14 132 15T60 98T34 225Q34 317
65 385T154 490T290 527ZM323 395Q323 426 311 443T276 460Q233 460 204 408T169 269L223 283Q278 297 300 322T323 395ZM441 609L407 580L286 672L157 580L124 611L234 754Q247 771 258 779T286 787Q295 787 306 786T326 781L441 609Z" />
<glyph unicode="&#xeb;" horiz-adv-x="491" d="M290 527Q366 527 406 493T446 394Q446 352 426 320T362 263T251 221L167 199Q171 157 185 129T222 86T278 71Q308 71 339 86T403 132L442 81Q420 54 387 33T317 -1T243 -14Q179 -14 132 15T60 98T34 225Q34 317
65 385T154 490T290 527ZM323 395Q323 426 311 443T276 460Q233 460 204 408T169 269L223 283Q278 297 300 322T323 395ZM108 689Q108 720 130 741T186 762Q221 762 240 744T260 695Q260 663 238 642T181 621Q147 621 128 639T108 689ZM314 689Q314 720 336 741T393
762Q428 762 447 744T466 695Q466 663 444 642T388 621Q354 621 334 639T314 689Z" />
<glyph unicode="&#xec;" horiz-adv-x="306" d="M105 412Q107 434 101 443T79 452Q58 452 24 437L9 492Q35 509 69 518T137 527Q238 527 229 414L206 108Q205 85 210 75T229 65Q241 65 251 69T281 85L304 37Q291 24 269 12T221 -7T175 -14Q71 -14 80 90L105 412ZM229
612L200 580L47 675Q16 695 16 729Q16 752 34 770T94 791L229 612Z" />
<glyph unicode="&#xed;" horiz-adv-x="306" d="M105 412Q107 434 101 443T79 452Q58 452 24 437L9 492Q35 509 69 518T137 527Q238 527 229 414L206 108Q205 85 210 75T229 65Q241 65 251 69T281 85L304 37Q291 24 269 12T221 -7T175 -14Q71 -14 80 90L105 412ZM170
762Q182 778 193 785T219 792Q246 792 263 769T272 703L89 580L58 612L170 762Z" />
<glyph unicode="&#xee;" horiz-adv-x="306" d="M105 412Q107 434 101 443T79 452Q58 452 24 437L9 492Q35 509 69 518T137 527Q238 527 229 414L206 108Q205 85 210 75T229 65Q241 65 251 69T281 85L304 37Q291 24 269 12T221 -7T175 -14Q71 -14 80 90L105 412ZM301
609L267 580L146 672L17 580L-16 611L94 754Q107 771 118 779T146 787Q155 787 166 786T186 781L301 609Z" />
<glyph unicode="&#xef;" horiz-adv-x="306" d="M105 412Q107 434 101 443T79 452Q58 452 24 437L9 492Q35 509 69 518T137 527Q238 527 229 414L206 108Q205 85 210 75T229 65Q241 65 251 69T281 85L304 37Q291 24 269 12T221 -7T175 -14Q71 -14 80 90L105 412ZM-32
689Q-32 720 -10 741T46 762Q81 762 100 744T120 695Q120 663 98 642T41 621Q7 621 -12 639T-32 689ZM174 689Q174 720 196 741T253 762Q288 762 307 744T326 695Q326 663 304 642T248 621Q214 621 194 639T174 689Z" />
<glyph unicode="&#xf0;" horiz-adv-x="545" d="M251 681Q226 699 196 712T129 733L144 788Q203 779 250 763T333 725L454 790L478 734L388 685Q441 638 466 579T498 457T505 337Q505 235 480 156T400 32T254 -14Q147 -14 90 55T32 242Q32 318 55 382T128 487T256
527Q300 527 330 510T380 461L384 463Q374 507 354 553T298 637L199 584L175 640L251 681ZM265 52Q308 52 330 80T362 157T371 267Q371 326 363 369T332 437T270 461Q228 461 206 429T175 344T167 231Q167 182 175 142T205 77T265 52Z" />
<glyph unicode="&#xf1;" horiz-adv-x="603" d="M596 33Q585 23 563 12T514 -6T464 -14Q368 -14 377 82L402 363Q405 398 400 411T377 424Q364 424 355 416T336 387T314 323L215 0H79L94 417Q95 436 90 444T71 453Q61 453 49 450T19 437L3 492Q14 498 34 506T80
521T129 527Q176 527 196 501T212 425L190 162L197 160L260 375Q283 451 315 489T411 527Q478 527 505 488T528 383L506 108Q504 83 509 74T529 65Q540 65 552 70T574 82L596 33ZM386 620Q364 620 344 625T297 644Q238 673 222 673Q213 673 204 665T178 632L137
655Q158 699 173 722T203 755T239 764Q254 764 272 759T331 736Q359 724 377 718T405 712Q419 712 428 719T454 750L495 727Q467 668 443 644T386 620Z" />
<glyph unicode="&#xf2;" horiz-adv-x="539" d="M254 -14Q148 -14 92 54T35 235Q35 291 48 343T90 437T166 503T283 527Q359 527 407 495T478 406T502 274Q502 198 477 133T397 27T254 -14ZM263 53Q307 53 329 83T360 164T368 275Q368 330 361 371T335 437T277
461Q243 461 222 442T189 390T174 317T170 234Q170 154 189 104T263 53ZM370 612L341 580L188 675Q157 695 157 729Q157 752 175 770T235 791L370 612Z" />
<glyph unicode="&#xf3;" horiz-adv-x="539" d="M254 -14Q148 -14 92 54T35 235Q35 291 48 343T90 437T166 503T283 527Q359 527 407 495T478 406T502 274Q502 198 477 133T397 27T254 -14ZM263 53Q307 53 329 83T360 164T368 275Q368 330 361 371T335 437T277
461Q243 461 222 442T189 390T174 317T170 234Q170 154 189 104T263 53ZM311 762Q323 778 334 785T360 792Q387 792 404 769T413 703L230 580L199 612L311 762Z" />
<glyph unicode="&#xf4;" horiz-adv-x="539" d="M254 -14Q148 -14 92 54T35 235Q35 291 48 343T90 437T166 503T283 527Q359 527 407 495T478 406T502 274Q502 198 477 133T397 27T254 -14ZM263 53Q307 53 329 83T360 164T368 275Q368 330 361 371T335 437T277
461Q243 461 222 442T189 390T174 317T170 234Q170 154 189 104T263 53ZM442 609L408 580L287 672L158 580L125 611L235 754Q248 771 259 779T287 787Q296 787 307 786T327 781L442 609Z" />
<glyph unicode="&#xf5;" horiz-adv-x="539" d="M254 -14Q148 -14 92 54T35 235Q35 291 48 343T90 437T166 503T283 527Q359 527 407 495T478 406T502 274Q502 198 477 133T397 27T254 -14ZM263 53Q307 53 329 83T360 164T368 275Q368 330 361 371T335 437T277
461Q243 461 222 442T189 390T174 317T170 234Q170 154 189 104T263 53ZM357 620Q335 620 315 625T268 644Q209 673 193 673Q184 673 175 665T149 632L108 655Q129 699 144 722T174 755T210 764Q225 764 243 759T302 736Q330 724 348 718T376 712Q390 712 399 719T425
750L466 727Q438 668 414 644T357 620Z" />
<glyph unicode="&#xf6;" horiz-adv-x="539" d="M254 -14Q148 -14 92 54T35 235Q35 291 48 343T90 437T166 503T283 527Q359 527 407 495T478 406T502 274Q502 198 477 133T397 27T254 -14ZM263 53Q307 53 329 83T360 164T368 275Q368 330 361 371T335 437T277
461Q243 461 222 442T189 390T174 317T170 234Q170 154 189 104T263 53ZM109 689Q109 720 131 741T187 762Q222 762 241 744T261 695Q261 663 239 642T182 621Q148 621 129 639T109 689ZM315 689Q315 720 337 741T394 762Q429 762 448 744T467 695Q467 663 445
642T389 621Q355 621 335 639T315 689Z" />
<glyph unicode="&#xf7;" horiz-adv-x="582" d="M74 265L78 354H524L520 265H74ZM223 476Q223 508 246 528T304 548Q339 548 359 529T380 477Q380 443 357 426T299 408Q265 408 244 425T223 476ZM288 72Q254 72 233 89T212 140Q212 172 235 192T293 212Q328 212
348 193T369 141Q369 107 346 90T288 72Z" />
<glyph unicode="&#xf8;" horiz-adv-x="539" d="M450 527H530L88 -14H7L450 527ZM254 -14Q148 -14 92 54T35 235Q35 291 48 343T90 437T166 503T283 527Q359 527 407 495T478 406T502 274Q502 198 477 133T397 27T254 -14ZM263 53Q307 53 329 83T360 164T368 275Q368
330 361 371T335 437T277 461Q243 461 222 442T189 390T174 317T170 234Q170 154 189 104T263 53Z" />
<glyph unicode="&#xf9;" horiz-adv-x="588" d="M3 488Q17 499 39 507T87 521T134 527Q230 527 221 431L196 150Q192 112 196 101T218 89Q229 89 236 97T253 128T274 190L373 513H509L494 99Q493 80 498 72T517 63Q533 63 544 66T569 78L591 28Q566 10 530 -2T464
-14Q416 -14 394 11T376 88L400 351L393 353L328 138Q303 54 270 20T181 -14Q123 -14 94 23T70 130L92 405Q94 428 89 438T69 448Q61 448 50 445T22 434L3 488ZM368 612L339 580L186 675Q155 695 155 729Q155 752 173 770T233 791L368 612Z" />
<glyph unicode="&#xfa;" horiz-adv-x="588" d="M3 488Q17 499 39 507T87 521T134 527Q230 527 221 431L196 150Q192 112 196 101T218 89Q229 89 236 97T253 128T274 190L373 513H509L494 99Q493 80 498 72T517 63Q533 63 544 66T569 78L591 28Q566 10 530 -2T464
-14Q416 -14 394 11T376 88L400 351L393 353L328 138Q303 54 270 20T181 -14Q123 -14 94 23T70 130L92 405Q94 428 89 438T69 448Q61 448 50 445T22 434L3 488ZM309 762Q321 778 332 785T358 792Q385 792 402 769T411 703L228 580L197 612L309 762Z" />
<glyph unicode="&#xfb;" horiz-adv-x="588" d="M3 488Q17 499 39 507T87 521T134 527Q230 527 221 431L196 150Q192 112 196 101T218 89Q229 89 236 97T253 128T274 190L373 513H509L494 99Q493 80 498 72T517 63Q533 63 544 66T569 78L591 28Q566 10 530 -2T464
-14Q416 -14 394 11T376 88L400 351L393 353L328 138Q303 54 270 20T181 -14Q123 -14 94 23T70 130L92 405Q94 428 89 438T69 448Q61 448 50 445T22 434L3 488ZM440 609L406 580L285 672L156 580L123 611L233 754Q246 771 257 779T285 787Q294 787 305 786T325
781L440 609Z" />
<glyph unicode="&#xfc;" horiz-adv-x="588" d="M3 488Q17 499 39 507T87 521T134 527Q230 527 221 431L196 150Q192 112 196 101T218 89Q229 89 236 97T253 128T274 190L373 513H509L494 99Q493 80 498 72T517 63Q533 63 544 66T569 78L591 28Q566 10 530 -2T464
-14Q416 -14 394 11T376 88L400 351L393 353L328 138Q303 54 270 20T181 -14Q123 -14 94 23T70 130L92 405Q94 428 89 438T69 448Q61 448 50 445T22 434L3 488ZM107 689Q107 720 129 741T185 762Q220 762 239 744T259 695Q259 663 237 642T180 621Q146 621 127
639T107 689ZM313 689Q313 720 335 741T392 762Q427 762 446 744T465 695Q465 663 443 642T387 621Q353 621 333 639T313 689Z" />
<glyph unicode="&#xfd;" horiz-adv-x="529" d="M305 -57Q283 -107 259 -146T199 -207T109 -229Q67 -229 41 -209T15 -157Q15 -116 37 -95T100 -71L113 -104Q123 -128 133 -137T158 -147Q177 -147 189 -131T214 -88L255 0H229Q199 0 178 14T138 59Q113 101 99 177T84
349Q84 366 84 387T85 425Q85 441 80 447T63 453Q55 453 42 450T12 440L-4 495Q13 504 49 515T123 527Q174 527 194 501T212 435Q211 418 211 400T210 360Q210 272 220 212T247 111Q256 89 266 84T286 78H290L397 338Q411 373 407 389T374 415L339 428Q330 477
355 502T417 527Q454 527 476 505T498 441Q498 417 492 389T471 321T431 226L305 -57ZM312 762Q324 778 335 785T361 792Q388 792 405 769T414 703L231 580L200 612L312 762Z" />
<glyph unicode="&#xfe;" horiz-adv-x="585" d="M76 -226L57 -208L75 62L97 692L17 713L23 767H199L215 756L203 425L173 190L181 188L218 326Q237 397 259 441T314 506T394 527Q468 527 509 471T550 312Q550 218 521 144T437 28T302 -14Q267 -14 237 -6T188 11L177
-156L273 -171L265 -226H76ZM288 57Q334 57 362 92T403 189T416 326Q416 356 414 377T406 412T391 431T368 438Q352 438 341 431T317 400T289 327T248 195L212 75Q231 65 248 61T288 57Z" />
<glyph unicode="&#xff;" horiz-adv-x="529" d="M305 -57Q283 -107 259 -146T199 -207T109 -229Q67 -229 41 -209T15 -157Q15 -116 37 -95T100 -71L113 -104Q123 -128 133 -137T158 -147Q177 -147 189 -131T214 -88L255 0H229Q199 0 178 14T138 59Q113 101 99 177T84
349Q84 366 84 387T85 425Q85 441 80 447T63 453Q55 453 42 450T12 440L-4 495Q13 504 49 515T123 527Q174 527 194 501T212 435Q211 418 211 400T210 360Q210 272 220 212T247 111Q256 89 266 84T286 78H290L397 338Q411 373 407 389T374 415L339 428Q330 477
355 502T417 527Q454 527 476 505T498 441Q498 417 492 389T471 321T431 226L305 -57ZM110 689Q110 720 132 741T188 762Q223 762 242 744T262 695Q262 663 240 642T183 621Q149 621 130 639T110 689ZM316 689Q316 720 338 741T395 762Q430 762 449 744T468 695Q468
663 446 642T390 621Q356 621 336 639T316 689Z" />
<glyph unicode="&#x2013;" horiz-adv-x="500" d="M26 242L29 315H499L496 242H26Z" />
<glyph unicode="&#x2014;" horiz-adv-x="1000" d="M17 242L20 315H990L987 242H17Z" />
<glyph unicode="&#x2018;" horiz-adv-x="266" d="M159 499Q114 499 96 527T77 587Q77 632 110 684T225 786L256 742Q237 729 218 711T186 675T173 639Q173 616 198 611L235 603Q243 578 237 554T212 515T159 499Z" />
<glyph unicode="&#x2019;" horiz-adv-x="266" d="M88 484L57 528Q76 542 95 559T127 596T140 631Q140 639 135 647T115 659L78 667Q71 692 76 716T101 755T154 771Q199 771 217 743T236 683Q236 638 203 586T88 484Z" />
<glyph unicode="&#x201a;" horiz-adv-x="279" d="M79 -161L48 -117Q67 -103 86 -86T118 -49T131 -14Q131 9 106 14L69 22Q62 47 67 71T92 110T145 126Q190 126 208 98T227 38Q227 -7 194 -59T79 -161Z" />
<glyph unicode="&#x201c;" horiz-adv-x="460" d="M159 499Q114 499 96 527T77 587Q77 632 110 684T225 786L256 742Q237 729 218 711T186 675T173 639Q173 616 198 611L235 603Q243 578 237 554T212 515T159 499ZM353 499Q308 499 290 527T271 587Q271 632 304
684T419 786L450 742Q431 729 412 711T380 675T367 639Q367 616 392 611L429 603Q437 578 431 554T406 515T353 499Z" />
<glyph unicode="&#x201d;" horiz-adv-x="460" d="M88 484L57 528Q76 542 95 559T127 596T140 631Q140 639 135 647T115 659L78 667Q71 692 76 716T101 755T154 771Q199 771 217 743T236 683Q236 638 203 586T88 484ZM282 484L251 528Q270 542 289 559T321 596T334
631Q334 639 329 647T309 659L272 667Q265 692 270 716T295 755T348 771Q393 771 411 743T430 683Q430 638 397 586T282 484Z" />
<glyph unicode="&#x201e;" horiz-adv-x="473" d="M79 -161L48 -117Q67 -103 86 -86T118 -49T131 -14Q131 9 106 14L69 22Q62 47 67 71T92 110T145 126Q190 126 208 98T227 38Q227 -7 194 -59T79 -161ZM273 -161L242 -117Q261 -103 280 -86T312 -49T325 -14Q325
9 300 14L263 22Q256 47 261 71T286 110T339 126Q384 126 402 98T421 38Q421 -7 388 -59T273 -161Z" />
<glyph unicode="&#x2022;" horiz-adv-x="371" d="M55 304Q55 373 92 404T187 435Q249 435 287 405T325 308Q325 239 287 209T187 178Q130 178 93 207T55 304Z" />
<glyph unicode="&#x2039;" horiz-adv-x="308" d="M275 445Q250 396 219 350T159 269Q176 252 194 225T231 162T269 83L229 52Q180 110 129 157T27 239L39 312Q93 345 146 389T236 476L275 445Z" />
<glyph unicode="&#x203a;" horiz-adv-x="308" d="M43 83Q69 131 100 178T162 259Q144 280 127 307T92 369T56 445L96 476Q194 359 295 289L282 216Q226 182 172 138T82 52L43 83Z" />
</font>
</defs>
</svg>
