<?xml version="1.0" standalone="no"?>
<!DOCTYPE svg PUBLIC "-//W3C//DTD SVG 1.1//EN" "http://www.w3.org/Graphics/SVG/1.1/DTD/svg11.dtd">
<svg xmlns="http://www.w3.org/2000/svg">
<defs >
<font id="Literata" horiz-adv-x="634" ><font-face
    font-family="Literata"
    units-per-em="1000"
    panose-1="0 0 0 0 0 0 0 0 0 0"
    ascent="1177"
    descent="-308"
    alphabetic="0" />
<glyph unicode=" " horiz-adv-x="180" />
<glyph unicode="!" horiz-adv-x="342" d="M133 188V226Q133 286 126 347T111 465T95 565T88 637Q88 677 113 695T171 714Q209 714 231 696T254 641Q254 611 247 564T230 460T213 343T205 225V188H133ZM170 -15Q134 -15 111 2T88 61Q88 103 111 121T170 140Q208
140 231 122T254 63Q254 21 231 3T170 -15Z" />
<glyph unicode="&quot;" horiz-adv-x="403" d="M261 540L233 697Q232 706 231 715T229 728Q229 753 245 770T291 787Q310 787 328 775T346 739Q346 736 346 729T343 716L305 540H261ZM104 540L76 697Q75 706 74 715T72 728Q72 753 88 770T134 787Q153 787 171
775T189 739Q189 736 189 729T186 716L148 540H104Z" />
<glyph unicode="#" horiz-adv-x="680" d="M136 -7L158 133H32L45 197H169L194 362H67L79 426H204L224 557H309L288 426H434L454 557H539L518 426H648L637 362H507L483 197H619L607 133H473L451 -7H366L388 133H243L221 -7H136ZM253 197H399L424 362H277L253 197Z" />
<glyph unicode="$" horiz-adv-x="592" d="M263 -84V795H326V-84H263ZM313 -14Q267 -14 218 2T137 43L123 -6H59L42 197L116 207Q139 152 182 112T294 71Q340 71 365 86T400 124T410 168Q410 217 369 241T262 288Q200 309 155 335T85 401T60 505Q60 541 73 578T113
646T184 695T290 714Q349 714 386 697T443 664L456 714H516L538 502L464 489Q438 568 397 600T301 633Q257 633 227 610T197 540Q197 505 216 485T270 449T349 416Q387 401 423 385T489 346T535 290T553 204Q553 136 520 87T433 12T313 -14Z" />
<glyph unicode="%" horiz-adv-x="839" d="M184 -14L549 597H649L286 -14H184ZM205 274Q126 274 81 316T35 425Q35 487 60 524T126 579T210 596Q255 596 293 580T354 530T377 444Q377 389 354 351T292 294T205 274ZM208 336Q231 336 244 357T258 434Q258 490 244
512T203 535Q181 535 167 515T152 439Q152 389 167 363T208 336ZM633 -14Q554 -14 509 27T463 136Q463 198 488 235T554 290T638 308Q683 308 721 292T782 242T805 156Q805 101 782 63T720 6T633 -14ZM636 48Q659 48 672 69T686 146Q686 202 672 224T631 247Q609
247 595 227T580 151Q580 101 595 75T636 48Z" />
<glyph unicode="&amp;" horiz-adv-x="824" d="M275 -14Q237 -14 197 -4T122 29T66 89T45 181Q45 230 65 268T119 335T196 381Q165 416 140 455T114 544Q114 601 141 639T214 696T310 715Q390 715 439 674T488 567Q488 508 453 465T361 396L481 269Q499 336 523
380T576 449T634 485T690 496Q725 496 752 475T780 418Q780 390 764 370T724 349Q699 349 685 363T656 419Q634 407 612 384T571 319T538 211Q580 170 607 146T653 111T690 100Q704 100 722 110T762 136L796 97Q760 48 725 24T655 0Q612 0 575 20T491 89Q474 64
448 41T380 2T275 -14ZM317 69Q355 69 386 86T434 135L240 333Q221 317 205 285T189 207Q189 137 227 103T317 69ZM321 440Q363 472 378 507T394 572Q394 613 371 634T316 655Q300 655 282 648T252 624T239 578Q239 538 264 504T321 440Z" />
<glyph unicode="&apos;" horiz-adv-x="246" d="M104 540L76 697Q75 706 74 715T72 728Q72 753 88 770T134 787Q153 787 171 775T189 739Q189 736 189 729T186 716L148 540H104Z" />
<glyph unicode="(" horiz-adv-x="351" d="M264 -212Q204 -147 156 -65T79 114T51 319Q51 399 68 472T116 611T185 731T265 828L323 793Q282 729 255 650T215 485T202 320Q202 232 214 143T253 -29T321 -181L264 -212Z" />
<glyph unicode=")" horiz-adv-x="351" d="M85 -212L27 -177Q68 -113 95 -34T135 131T148 296Q148 385 136 474T97 645T29 797L86 828Q147 764 195 682T271 502T299 297Q299 217 282 144T234 5T165 -115T85 -212Z" />
<glyph unicode="*" horiz-adv-x="458" d="M222 404Q199 404 190 420T185 460L208 564L136 497Q118 481 99 481T66 494T52 525Q52 540 60 548T88 564L188 598L97 630Q82 635 71 645T60 676Q60 707 83 717T131 704L209 632L188 738Q183 764 197 777T233 791Q256
791 266 777T272 740L248 629L325 699Q347 719 365 718T395 704T406 674Q406 656 396 646T369 630L266 597L359 565Q375 560 386 550T398 519Q398 487 376 477T326 489L247 564L268 469Q274 441 262 423T222 404Z" />
<glyph unicode="+" horiz-adv-x="582" d="M237 81V262H66V356H237V533H345V356H516V262H345V81H237Z" />
<glyph unicode="," horiz-adv-x="322" d="M113 -176L77 -129Q112 -105 136 -73T164 -10H149Q115 -10 94 7T73 61Q73 98 96 121T159 144Q206 144 229 115T252 45Q252 6 238 -35T193 -112T113 -176Z" />
<glyph unicode="-" horiz-adv-x="358" d="M31 233V329H328V233H31Z" />
<glyph unicode="." horiz-adv-x="303" d="M155 -19Q118 -19 94 -1T70 61Q70 105 94 124T155 144Q195 144 219 125T244 63Q244 20 220 1T155 -19Z" />
<glyph unicode="/" horiz-adv-x="476" d="M10 -110L355 802H461L117 -110H10Z" />
<glyph unicode="0" horiz-adv-x="590" d="M294 -14Q203 -14 144 32T56 159T27 341Q27 445 50 516T114 631T202 694T302 714Q377 714 436 677T529 562T563 364Q563 241 529 157T434 29T294 -14ZM302 65Q358 65 385 129T413 348Q413 503 383 569T293 635Q258 635
232 611T191 526T177 356Q177 214 208 140T302 65Z" />
<glyph unicode="1" horiz-adv-x="407" d="M20 0V60L111 76Q128 79 132 87T137 115V565Q137 584 132 594T102 607L15 616L23 673L260 714L282 697V112Q282 92 287 86T309 76L396 60V0H20Z" />
<glyph unicode="2" horiz-adv-x="514" d="M26 0L17 74Q92 154 144 213T231 315T285 393T313 459T321 523Q321 570 298 602T227 634Q199 634 178 627T144 607Q161 580 167 567T174 545Q174 521 153 503T97 484Q51 484 32 508T12 565Q12 602 43 636T128 692T247
714Q315 714 365 690T443 621T471 514Q471 477 455 438T401 352T304 245T158 104H306Q330 104 344 107T369 120T389 152T412 210H488L469 0H26Z" />
<glyph unicode="3" horiz-adv-x="537" d="M251 -14Q199 -14 158 -1T87 32T38 76T8 118L73 174Q92 149 118 129T174 98T238 87Q277 87 303 102T343 143T357 204Q357 270 312 297T178 322L186 392Q270 400 307 436T345 531Q345 583 319 609T250 636Q228 636 203
629T164 607Q181 580 187 565T194 539Q194 523 175 504T115 484Q72 484 52 508T31 563Q31 601 60 635T142 692T267 714Q329 714 378 694T457 636T486 541Q486 479 448 436T341 371V367Q387 359 424 339T484 283T507 196Q507 130 472 83T378 11T251 -14Z" />
<glyph unicode="4" horiz-adv-x="580" d="M198 0V56L285 70Q308 74 313 82T319 110V164H19L8 227L322 696L436 711L459 693V252H560V164H459V108Q459 87 465 80T492 69L546 60V0H198ZM113 252H319V550H315L113 252Z" />
<glyph unicode="5" horiz-adv-x="541" d="M250 -14Q187 -14 124 16T20 114L82 172Q128 123 168 106T246 88Q300 88 334 123T368 221Q368 287 335 320T244 353Q219 353 188 346T119 317L72 364L104 700H489V665L464 588H188L171 422Q195 434 232 441T303 449Q368
449 416 423T491 350T518 238Q518 156 484 100T389 15T250 -14Z" />
<glyph unicode="6" horiz-adv-x="563" d="M284 -14Q188 -14 132 26T51 136T26 290Q26 368 43 443T98 580T199 677T353 714Q383 714 416 707T477 685T524 648T542 594Q542 565 522 540T459 514Q420 514 401 531T382 568Q382 576 386 587T404 626Q393 632 376 634T342
637Q305 637 277 618T230 566T200 491T183 403Q203 423 241 439T326 455Q389 455 436 430T510 357T537 239Q537 157 505 101T417 15T284 -14ZM288 65Q336 65 363 102T390 228Q390 305 362 337T288 369Q261 369 236 356T194 315T178 239Q178 190 188 151T222 88T288
65Z" />
<glyph unicode="7" horiz-adv-x="522" d="M178 -14L157 1Q157 53 166 119T200 262T275 422T403 592H198Q166 592 148 583T119 549T95 477H15L35 700H515L524 627Q455 533 414 452T351 296T324 150T320 2L178 -14Z" />
<glyph unicode="8" horiz-adv-x="573" d="M274 -14Q200 -14 143 6T54 67T21 173Q21 208 35 242T84 306T176 358Q107 397 79 435T51 529Q51 574 76 616T153 686T285 714Q405 714 463 670T521 558Q521 498 490 461T405 395Q490 355 520 305T551 199Q551 129 513
82T412 10T274 -14ZM290 70Q342 70 372 97T402 180Q402 237 361 266T247 320Q203 295 182 261T160 185Q160 127 196 99T290 70ZM325 428Q356 448 371 477T387 544Q387 576 373 596T336 627T283 637Q241 637 214 616T187 553Q187 528 201 508T246 469T325 428Z"
/>
<glyph unicode="9" horiz-adv-x="550" d="M242 -14Q188 -14 130 5T27 74L78 137Q117 104 157 95T237 85Q279 85 307 108T351 176T373 284Q347 260 315 250T243 239Q177 239 126 266T46 343T16 460Q16 548 50 605T142 689T273 717Q366 717 421 676T500 565T525
413Q525 196 457 91T242 -14ZM263 329Q290 329 316 342T358 388T375 475Q375 518 365 555T332 616T269 640Q220 640 192 601T164 479Q164 394 190 362T263 329Z" />
<glyph unicode=":" horiz-adv-x="314" d="M155 364Q118 364 94 382T70 444Q70 488 94 507T155 527Q195 527 219 508T244 446Q244 403 220 384T155 364ZM155 -19Q118 -19 94 -1T70 61Q70 105 94 124T155 144Q195 144 219 125T244 63Q244 20 220 1T155 -19Z" />
<glyph unicode=";" horiz-adv-x="319" d="M106 -176L70 -129Q105 -105 129 -73T157 -10H142Q108 -10 87 7T66 61Q66 98 89 121T152 144Q199 144 222 115T245 45Q245 6 231 -35T186 -112T106 -176ZM155 364Q118 364 94 382T70 444Q70 488 94 507T155 527Q195 527
219 508T244 446Q244 403 220 384T155 364Z" />
<glyph unicode="&lt;" horiz-adv-x="582" d="M457 44L68 267V332L456 554L496 473L180 302L498 131L457 44Z" />
<glyph unicode="=" horiz-adv-x="582" d="M70 351V445H512V351H70ZM70 171V265H512V171H70Z" />
<glyph unicode="&gt;" horiz-adv-x="582" d="M125 44L84 131L402 302L86 473L126 554L514 332V267L125 44Z" />
<glyph unicode="?" horiz-adv-x="527" d="M204 188V322Q204 353 210 372T231 409T270 450Q310 488 323 511T337 562Q337 603 312 621T247 639Q216 639 195 630T160 610Q177 588 183 577T189 557Q189 538 173 518T121 498Q84 498 67 518T50 566Q50 605 77 639T153
693T266 714Q364 714 417 672T470 550Q470 518 459 490T419 429T338 348Q311 323 297 307T277 277T272 247V188H204ZM239 -15Q203 -15 180 2T157 61Q157 103 180 121T239 140Q277 140 300 122T323 63Q323 21 300 3T239 -15Z" />
<glyph unicode="@" horiz-adv-x="852" d="M412 -197Q341 -197 275 -176T155 -109T71 5T40 169Q40 288 88 381T227 528T441 582Q551 582 634 545T765 432T812 244Q812 155 783 97T706 11T605 -17Q583 -17 564 -10T534 17T523 77L527 169L521 170L508 124Q492 68
469 37T418 -5T360 -17Q308 -17 278 8T234 72T221 147Q221 240 250 297T327 380T426 407Q455 407 482 402T532 382L585 408L618 391L608 89Q607 64 614 55T634 46Q669 46 691 99T714 240Q714 363 648 437T441 511Q357 511 290 473T184 361T144 185Q144 98 169 41T234
-50T320 -98T410 -112Q480 -112 532 -97T627 -46L666 -96Q565 -197 412 -197ZM381 55Q410 55 435 91T481 201L519 331Q505 340 480 344T438 348Q399 348 375 319T339 244T327 150Q327 107 338 81T381 55Z" />
<glyph unicode="A" horiz-adv-x="740" d="M12 0V60L59 67Q77 71 85 82T103 122L311 700H439L645 119Q653 95 660 83T688 67L728 60V0H419V60L465 67Q485 70 488 81T484 117L453 215H231L200 121Q192 97 196 85T223 68L267 60V0H12ZM252 283H433L348 552H344L252 283Z" />
<glyph unicode="B" horiz-adv-x="673" d="M50 0V60L103 70Q125 74 129 86T134 120V584Q134 607 129 617T101 631L50 640V700H375Q465 700 516 677T587 614T608 527Q608 493 594 460T554 402T490 369V364Q559 360 603 319T648 211Q648 177 638 140T599 72T514 20T363
0H50ZM348 71Q407 71 439 90T483 140T495 209Q495 275 450 299T335 324Q323 324 311 324T282 321V76Q296 73 317 72T348 71ZM323 390Q396 390 425 422T455 517Q455 548 443 573T402 614T320 630H282V392Q292 391 306 391T323 390Z" />
<glyph unicode="C" horiz-adv-x="719" d="M387 -14Q279 -14 203 28T85 149T44 339Q44 453 84 537T199 667T373 714Q441 714 482 693T545 651L555 716H613L652 481L577 463Q556 541 511 585T389 629Q325 629 283 593T221 495T200 350Q200 261 228 201T303 111T409
81Q458 81 493 97T554 137T600 187L661 137Q637 103 601 68T513 10T387 -14Z" />
<glyph unicode="D" horiz-adv-x="770" d="M50 0V60L107 71Q124 74 129 85T134 123V582Q134 605 131 615T105 629L50 640V700H369Q475 700 555 668T681 564T726 378Q726 296 705 227T636 107T510 28T319 0H50ZM344 71Q416 71 461 96T530 164T563 261T572 375Q572
450 547 507T467 597T319 630H282V76Q290 75 309 73T344 71Z" />
<glyph unicode="E" horiz-adv-x="640" d="M50 0V60L98 69Q117 73 123 82T129 120V584Q129 610 123 618T96 631L50 640V700H545L583 532L518 515Q501 563 484 588T440 621T369 630H277V391H328Q366 391 382 395T406 416T421 474L479 481V248L421 238Q417 275 410
293T389 317T345 323H277V70H395Q445 70 471 78T512 111T540 188H609L585 0H50Z" />
<glyph unicode="F" horiz-adv-x="609" d="M50 0V60L98 69Q120 73 124 85T129 120V584Q129 607 124 617T96 631L50 640V700H544L582 532L514 512Q494 567 475 591T427 623T348 630H277V370H324Q362 370 378 374T402 395T417 453L473 460V208L417 198Q411 249 404
271T382 299T334 305H277V119Q277 91 283 82T314 69L378 60V0H50Z" />
<glyph unicode="G" horiz-adv-x="753" d="M383 -14Q290 -14 225 15T121 94T63 206T44 334Q44 450 83 535T197 667T372 714Q437 714 481 693T546 651L556 714H617L666 481L589 464Q561 547 514 587T391 628Q333 628 296 604T238 539T209 449T200 348Q200 252 227
191T300 101T399 72Q446 72 473 85T519 114V222Q519 245 514 256T486 272L436 281V341H723V281L680 272Q659 268 655 255T650 218V-3H576L557 39Q529 17 484 2T383 -14Z" />
<glyph unicode="H" horiz-adv-x="834" d="M50 0V60L97 69Q123 74 128 82T134 121V579Q134 610 129 618T97 631L50 640V700H366V640L314 630Q292 626 287 617T282 580V399H552V580Q552 608 547 617T520 630L468 640V700H784V640L737 631Q711 627 706 619T700 579V121Q700
90 705 82T737 69L784 60V0H468V60L520 70Q542 74 547 83T552 117V319H282V117Q282 92 287 83T314 70L366 60V0H50Z" />
<glyph unicode="I" horiz-adv-x="425" d="M50 0V60L101 69Q127 74 132 82T138 121V579Q138 610 133 618T101 631L50 640V700H375V640L318 630Q296 626 291 617T286 580V117Q286 92 291 83T318 70L375 60V0H50Z" />
<glyph unicode="J" horiz-adv-x="539" d="M211 -14Q158 -14 115 1T46 47T20 121Q20 156 42 182T101 209Q136 209 152 193T169 156Q169 142 163 127T137 79Q145 72 165 64T210 55Q247 55 265 71T289 116T295 186V584Q295 607 290 617T262 631L199 641V700H517V640L471
629Q450 624 447 614T443 580V194Q443 142 420 95T346 17T211 -14Z" />
<glyph unicode="K" horiz-adv-x="777" d="M669 -14Q630 -14 588 4T509 80L367 309L286 227V117Q286 94 288 84T312 70L369 60V0H50V60L107 70Q129 74 133 84T138 116V583Q138 606 134 616T107 630L50 640V700H375V640L314 629Q293 625 290 614T286 579V333L531
585Q547 605 542 617T520 632L472 639L482 700H735V638L702 631Q683 627 672 618T638 586L466 409L628 155Q651 120 669 104T704 82T737 77Q742 77 753 79T777 85L790 28Q774 13 743 0T669 -14Z" />
<glyph unicode="L" horiz-adv-x="630" d="M50 0V60L103 70Q125 74 129 83T134 121V583Q134 606 130 616T102 630L50 640V700H380V639L315 630Q293 626 288 618T282 586V70H369Q412 70 439 84T486 132T524 227H600L572 0H50Z" />
<glyph unicode="M" horiz-adv-x="963" d="M42 0V60L95 70Q116 74 120 82T126 113L156 582Q158 605 152 615T124 629L68 640V700H344L484 273H487L642 700H901V640L846 629Q825 625 821 613T817 578L846 117Q848 94 852 84T878 70L930 60V0H611V60L668 71Q688 76
692 86T695 123L672 556H669L506 113H393L243 549H239L216 118Q215 95 219 85T246 70L300 60V0H42Z" />
<glyph unicode="N" horiz-adv-x="832" d="M50 0V60L104 70Q125 74 129 84T134 120V584Q134 607 130 616T103 630L50 640V700H288L605 171H608V584Q608 607 604 616T577 630L524 640V700H782V640L728 630Q706 626 702 616T698 580V0H545L228 529H224V116Q224 93
229 84T256 70L308 60V0H50Z" />
<glyph unicode="O" horiz-adv-x="767" d="M383 -14Q267 -14 192 32T81 158T44 337Q44 436 71 507T147 624T259 692T394 714Q487 714 561 676T679 561T723 368Q723 261 685 175T571 37T383 -14ZM392 70Q475 70 522 137T569 350Q569 434 547 497T483 596T378 631Q291
631 246 563T200 357Q200 273 220 208T283 107T392 70Z" />
<glyph unicode="P" horiz-adv-x="644" d="M51 0V60L104 69Q126 73 130 85T135 120V584Q135 607 130 617T102 631L51 640V700H350Q426 700 487 679T583 612T619 489Q619 426 596 383T536 315T456 278T371 267Q343 267 316 269T282 272V116Q282 91 288 80T319 66L389
58V0H51ZM323 337Q397 337 431 383T465 496Q465 558 433 594T331 630H283V339Q290 338 299 338T323 337Z" />
<glyph unicode="Q" horiz-adv-x="773" d="M703 -190Q652 -190 614 -170T543 -109T473 -3Q452 -8 430 -11T383 -14Q267 -14 192 32T81 158T44 337Q44 436 71 507T147 624T259 692T394 714Q487 714 561 676T679 561T723 368Q723 265 687 180T580 44Q614 -4 636 -31T683
-71T748 -83Q777 -83 803 -71T865 -34L895 -77Q852 -131 806 -160T703 -190ZM392 70Q402 70 411 71T430 74Q403 121 376 149T310 178Q275 178 241 159Q264 117 301 94T392 70ZM519 133Q543 168 556 221T569 350Q569 434 547 497T483 596T378 631Q291 631 246 563T200
357Q200 320 204 286T215 223Q244 244 272 255T328 266Q388 266 429 233T519 133Z" />
<glyph unicode="R" horiz-adv-x="720" d="M596 -14Q546 -14 518 0T473 44T436 115L386 229Q373 260 362 277T336 302T296 310Q290 310 282 308V119Q282 94 289 83T320 69L374 61V0H50V61L104 70Q126 74 130 86T135 121V583Q135 606 130 616T102 630L50 639V700H376Q442
700 495 685T579 632T611 527Q611 485 593 454T547 400T488 365T429 347V344Q476 331 500 306T540 243L574 163Q587 134 597 113T621 79T653 67Q664 67 676 69T702 75L715 28Q693 8 659 -3T596 -14ZM309 376Q364 376 396 395T443 445T457 513Q457 577 422 603T324
630H283V378Q283 378 290 377T309 376Z" />
<glyph unicode="S" horiz-adv-x="592" d="M313 -14Q267 -14 218 2T137 43L123 -6H59L42 197L116 207Q139 152 182 112T294 71Q340 71 365 86T400 124T410 168Q410 217 369 241T262 288Q200 309 155 335T85 401T60 505Q60 541 73 578T113 646T184 695T290 714Q349
714 386 697T443 664L456 714H516L538 502L464 489Q438 568 397 600T301 633Q257 633 227 610T197 540Q197 505 216 485T270 449T349 416Q387 401 423 385T489 346T535 290T553 204Q553 136 520 87T433 12T313 -14Z" />
<glyph unicode="T" horiz-adv-x="729" d="M196 0V61L256 71Q278 74 283 87T289 123V630H264Q227 630 203 625T162 603T132 557T102 478L27 495L67 700H662L702 498L626 481Q606 543 590 575T550 618T478 630H437V119Q437 96 443 86T471 71L530 61V0H196Z" />
<glyph unicode="U" horiz-adv-x="790" d="M402 -14Q298 -14 237 21T150 117T123 260V583Q123 606 118 616T90 630L36 639V700H357V639L301 630Q280 626 276 614T271 579V274Q271 213 282 170T325 103T421 80Q486 80 519 107T565 178T577 273V583Q577 606 572 616T544
630L491 639V700H758V639L703 630Q681 626 677 614T672 579V271Q672 124 601 55T402 -14Z" />
<glyph unicode="V" horiz-adv-x="737" d="M291 0L93 582Q83 608 77 617T48 632L8 640V700H328V643L273 636Q253 633 249 623T254 586L394 134H399L544 580Q553 606 548 617T522 633L471 644L474 700H729V643L680 635Q662 631 654 621T635 581L443 0H291Z" />
<glyph unicode="W" horiz-adv-x="1098" d="M231 0L93 583Q86 610 78 620T48 633L8 639V700H319V642L268 636Q248 634 244 624T245 587L341 139H345L492 700H643L797 137H801L905 581Q911 607 907 618T881 634L832 643V700H1090V642L1043 636Q1025 634 1015 623T996
582L851 0H677L535 526H532L396 0H231Z" />
<glyph unicode="X" horiz-adv-x="752" d="M19 0V59L53 66Q80 71 93 79T125 113L294 334L105 593Q89 616 76 622T42 633L12 641L23 700H333V639L273 630Q257 627 259 617T268 597L382 439L492 592Q501 606 502 615T483 629L429 644L440 700H709V640L669 633Q650
629 637 625T604 594L443 375L638 107Q655 85 670 79T707 68L740 62V0H405V60L459 69Q476 71 476 82T465 108L352 262L231 101Q222 90 222 81T239 67L297 55V0H19Z" />
<glyph unicode="Y" horiz-adv-x="695" d="M177 0V60L254 70Q276 74 280 85T285 118V264L102 582Q88 607 76 618T42 633L8 640V700H324V643L279 636Q259 633 253 622T260 586L382 360H387L506 581Q519 606 515 617T489 632L436 644V700H687V643L658 635Q640 632
628 620T600 580L433 272V117Q433 94 438 84T465 70L542 60V0H177Z" />
<glyph unicode="Z" horiz-adv-x="661" d="M45 0V68L423 631H253Q212 631 189 614T152 563T123 481L54 476L66 700H595V631L220 70H397Q432 70 456 81T500 127T543 229H608L589 0H45Z" />
<glyph unicode="[" horiz-adv-x="348" d="M92 -212V812H315L321 745L247 739Q231 738 226 732T221 702V-105Q221 -126 226 -131T246 -139L321 -145L315 -212H92Z" />
<glyph unicode="\" horiz-adv-x="478" d="M361 -110L10 802H116L468 -110H361Z" />
<glyph unicode="]" horiz-adv-x="348" d="M33 -212L27 -145L101 -139Q117 -137 122 -132T127 -102V705Q127 726 122 732T102 739L27 745L33 812H256V-212H33Z" />
<glyph unicode="^" horiz-adv-x="582" d="M110 324L31 372L254 712H328L551 372L472 324L291 595L110 324Z" />
<glyph unicode="_" horiz-adv-x="500" d="M15 -111V-33H485V-111H15Z" />
<glyph unicode="`" horiz-adv-x="500" d="M304 580L148 676Q129 687 120 702T111 734Q111 753 128 775T179 797Q190 797 198 791T218 768L337 615L304 580Z" />
<glyph unicode="a" horiz-adv-x="557" d="M190 -14Q119 -14 78 24T36 128Q36 193 73 226T173 272T317 289V365Q317 414 299 436T243 458Q220 458 199 452T160 434Q185 391 185 377Q185 352 165 338T109 323Q77 323 59 340T41 387Q41 425 71 456T152 507T260 527Q364
527 412 480T460 330V115Q460 69 498 69Q506 69 516 71T540 77L554 27Q531 8 501 -3T437 -14Q400 -14 374 6T339 64Q289 -14 190 -14ZM247 76Q282 76 299 97T317 158V225Q256 225 220 208T183 144Q183 112 199 94T247 76Z" />
<glyph unicode="b" horiz-adv-x="632" d="M148 -14L95 -4V634Q95 663 89 672T58 687L13 697L21 760L227 766L238 755V443H241Q265 483 305 505T394 527Q488 527 540 461T592 276Q592 140 529 63T353 -14Q266 -14 201 34L148 -14ZM325 71Q383 71 413 121T443 267Q443
353 419 392T340 432Q293 432 266 398T238 305V99Q260 84 280 78T325 71Z" />
<glyph unicode="c" horiz-adv-x="526" d="M278 -14Q202 -14 147 19T63 110T34 238Q34 325 67 390T161 491T306 527Q380 527 422 505T482 450T500 389Q500 356 481 335T424 314Q412 314 395 317T364 332T350 368Q350 379 357 394T381 435Q368 444 352 448T314 453Q267
453 238 428T196 360T183 262Q183 174 219 133T313 91Q361 91 393 106T458 147L500 99Q463 55 409 21T278 -14Z" />
<glyph unicode="d" horiz-adv-x="636" d="M246 -14Q143 -14 89 54T34 243Q34 331 63 394T146 492T277 527Q311 527 340 520T391 501V636Q391 662 385 673T352 688L308 697L316 760L523 766L534 755V116Q534 93 539 84T566 71L613 63V0L421 -7L406 73H403Q381 36
343 11T246 -14ZM291 81Q317 81 340 92T377 130T391 204V418Q369 431 344 436T299 442Q239 442 211 394T183 253Q183 171 209 126T291 81Z" />
<glyph unicode="e" horiz-adv-x="528" d="M277 -14Q194 -14 140 21T60 115T34 239Q34 331 67 395T159 493T294 527Q386 527 440 477T494 336Q494 314 491 286T481 234H183Q185 165 220 128T313 91Q360 91 392 106T456 147L500 99Q480 74 451 48T379 4T277 -14ZM183
310H353Q355 320 355 335T356 363Q356 416 336 435T281 454Q231 454 209 412T183 310Z" />
<glyph unicode="f" horiz-adv-x="413" d="M36 0V60L79 68Q101 72 105 82T110 118V435H30V490L110 510V545Q110 615 131 668T198 751T319 782Q380 782 417 764T471 719T488 665Q488 634 471 615T418 595Q407 595 391 598T362 613T349 647Q349 658 355 672T374 707Q364
712 352 716T324 720Q281 720 267 693T253 619V513H394V435H253V114Q253 93 258 82T287 68L357 60V0H36Z" />
<glyph unicode="g" horiz-adv-x="609" d="M256 -229Q158 -229 105 -211T32 -164T12 -103Q12 -56 42 -29T115 17V19Q78 31 64 54T49 99Q49 122 63 146T110 199V202Q77 220 56 251T34 335Q34 396 65 439T149 504T268 527Q297 527 335 521T405 498Q418 518 434 539T473
574T525 588Q554 588 576 573T599 525Q599 498 581 477T537 456Q517 456 508 464T491 489L482 509Q463 485 451 462Q469 441 483 413T498 343Q498 265 436 214T258 163Q235 163 213 167T174 176Q164 166 158 156T151 135Q151 109 171 104T227 98H367Q425 98 468
86T536 42T561 -45Q561 -78 546 -111T497 -170T403 -213T256 -229ZM272 -151Q346 -151 377 -124T409 -66Q409 -39 392 -29T335 -19H190Q173 -33 163 -47T153 -82Q153 -117 182 -134T272 -151ZM271 232Q307 232 329 260T352 339Q352 398 329 429T267 460Q233 460
214 444T188 401T180 345Q180 293 203 263T271 232Z" />
<glyph unicode="h" horiz-adv-x="664" d="M30 0V60L78 69Q98 73 101 84T104 117V640Q104 666 97 675T66 689L21 697L29 760L236 766L247 755V443H250Q261 460 281 479T332 513T407 527Q473 527 507 504T555 441T568 356V109Q568 89 573 81T599 68L646 60V0H359V59L395
67Q415 71 420 79T425 109V309Q425 345 420 371T400 411T350 425Q305 425 276 394T247 295V113Q247 92 251 83T272 70L314 59V0H30Z" />
<glyph unicode="i" horiz-adv-x="353" d="M32 0V60L84 69Q104 72 109 81T114 114V382Q114 416 109 426T78 441L31 448L38 509L245 521L257 516V114Q257 90 262 83T285 70L333 59V0H32ZM168 613Q125 613 99 636T73 700Q73 739 99 763T168 787Q214 787 239 764T264
700Q264 661 238 637T168 613Z" />
<glyph unicode="j" horiz-adv-x="313" d="M61 -229L13 -178Q63 -138 81 -87T100 38V382Q100 416 95 426T65 441L17 448L24 509L231 521L243 516V95Q243 4 222 -56T159 -157T61 -229ZM154 613Q113 613 86 636T59 699Q59 741 86 764T154 787Q197 787 223 765T250
701Q250 661 224 637T154 613Z" />
<glyph unicode="k" horiz-adv-x="648" d="M545 -14Q516 -14 491 -7T443 19T396 69L248 269L244 292L378 411Q392 424 392 431T380 441L334 454L344 513H593V453L563 447Q545 443 537 439T512 421L374 307L521 127Q547 95 564 83T604 70Q614 70 625 72T644 78L658
28Q637 9 605 -2T545 -14ZM34 0V60L78 68Q98 72 103 81T108 113V636Q108 663 102 673T70 688L25 697L33 760L240 766L251 755V113Q251 89 256 80T279 66L310 59V0H34Z" />
<glyph unicode="l" horiz-adv-x="343" d="M30 0V60L74 68Q94 72 99 81T104 113V636Q104 663 98 673T66 688L21 697L29 760L236 766L247 755V113Q247 89 252 82T275 69L320 59V0H30Z" />
<glyph unicode="m" horiz-adv-x="949" d="M34 0V60L82 69Q98 72 103 81T108 117V379Q108 413 103 425T74 441L25 448L32 509L221 520L233 513L240 424H243Q256 449 276 472T326 511T400 527Q463 527 495 499T539 428Q558 466 596 496T698 527Q749 527 780 511T827
470T848 414T853 356V109Q853 89 858 81T884 68L931 60V0H650V59L686 68Q700 72 705 80T710 111V309Q710 362 698 393T641 425Q622 425 601 415T566 379T552 312V111Q552 89 556 81T578 67L612 58V0H349V58L385 67Q399 71 404 78T409 106V309Q409 362 398 393T344
425Q304 425 278 396T251 295V113Q251 89 256 82T277 69L311 59V0H34Z" />
<glyph unicode="n" horiz-adv-x="668" d="M34 0V60L82 69Q98 72 103 81T108 117V379Q108 413 103 425T74 441L25 448L32 509L221 520L233 513L240 424H243Q257 448 276 471T327 511T409 527Q477 527 512 504T559 441T572 356V109Q572 89 577 81T603 68L650 60V0H363V59L399
67Q419 72 424 80T429 109V309Q429 345 424 371T404 411T354 425Q306 425 279 394T251 295V113Q251 92 255 84T276 70L318 59V0H34Z" />
<glyph unicode="o" horiz-adv-x="594" d="M293 -14Q205 -14 148 20T62 111T34 241Q34 343 71 406T170 498T307 527Q382 527 439 499T528 414T560 272Q560 181 527 117T435 20T293 -14ZM307 65Q360 65 384 110T408 248Q408 354 378 402T291 451Q241 451 213 411T185
277Q185 174 214 120T307 65Z" />
<glyph unicode="p" d="M29 -219V-156L71 -149Q88 -146 94 -138T100 -109V384Q100 416 93 427T63 441L17 448L24 509L213 520L225 513L232 429H235Q263 476 306 501T402 527Q496 527 548 461T600 276Q600 187 572 122T492 21T367 -14Q332 -14 299 -6T243 16V-104Q243
-126 250 -136T276 -148L338 -157V-219H29ZM332 73Q391 73 421 120T451 262Q451 348 426 388T346 428Q298 428 271 395T243 303V100Q259 88 283 81T332 73Z" />
<glyph unicode="q" horiz-adv-x="615" d="M296 -219V-157L358 -148Q377 -146 384 -136T391 -104V50H388Q334 -14 249 -14Q182 -14 134 16T60 103T34 239Q34 328 63 392T148 492T277 527Q316 527 351 516T428 478L479 527L534 516V-109Q534 -129 540 -137T563 -149L605
-156V-219H296ZM296 81Q341 81 366 113T391 204V415Q370 427 345 434T299 442Q183 442 183 250Q183 166 211 124T296 81Z" />
<glyph unicode="r" horiz-adv-x="524" d="M34 0V60L82 69Q98 72 103 81T108 117V379Q108 415 102 426T74 441L25 448L32 509L220 520L232 513L239 428H242Q295 527 394 527Q450 527 482 498T514 419Q514 378 493 355T432 331Q400 331 381 344T362 381Q362 392
367 407T385 444Q358 449 334 439T291 408T262 358T251 293V115Q251 90 255 83T276 72L362 59V0H34Z" />
<glyph unicode="s" horiz-adv-x="480" d="M61 -14L45 164L119 169Q135 126 157 103T205 72T256 63Q291 63 311 80T331 127Q331 161 299 175T223 199Q193 207 163 216T106 243T65 288T49 361Q49 409 72 446T140 505T244 527Q276 527 307 519T357 496L365 527H423L434
353L360 358Q345 410 314 434T242 459Q206 459 190 443T173 404Q173 370 204 357T277 332Q307 325 337 315T394 286T436 238T452 160Q452 116 432 76T367 11T254 -14Q210 -14 178 -4T127 19L116 -14H61Z" />
<glyph unicode="t" horiz-adv-x="427" d="M254 -14Q179 -14 139 24T99 136V435H25V501Q68 506 92 522T128 577T146 683L227 692L242 685V513H388V435H242V160Q242 126 253 103T302 79Q328 79 349 88T389 111L422 58Q391 26 348 6T254 -14Z" />
<glyph unicode="u" horiz-adv-x="656" d="M255 -14Q192 -14 159 10T113 72T100 154V383Q100 412 95 424T65 440L17 448L24 509L231 521L243 516V200Q243 168 246 143T264 103T314 88Q360 88 387 121T414 221V384Q414 413 409 425T381 441L341 448L348 509L545
521L557 516V124Q557 99 560 87T589 71L636 63V0L444 -7L428 80H425Q409 56 388 35T334 0T255 -14Z" />
<glyph unicode="v" horiz-adv-x="619" d="M238 0L89 390Q79 416 73 426T45 441L10 449L20 513H316V452L268 445Q248 442 244 432T249 395L339 125H344L438 390Q447 416 442 427T415 444L371 454L381 513H609V453L572 445Q553 441 545 431T526 391L378 0H238Z" />
<glyph unicode="w" horiz-adv-x="894" d="M211 0L85 392Q77 419 71 428T43 443L8 451L18 513H316V454L268 447Q248 444 243 435T244 398L302 144H307L413 513H564L651 146H656L731 400Q736 417 733 429T705 446L668 454L678 513H886V453L849 445Q828 441 821 430T805
392L686 0H549L458 399H454L343 0H211Z" />
<glyph unicode="x" horiz-adv-x="588" d="M6 0V60L41 68Q61 73 74 82T109 116L218 249L86 408Q73 424 63 431T34 443L-2 451L8 513H302V454L271 448Q234 441 264 405L331 325L385 398Q402 419 402 431T380 448L356 453L366 513H579V453L546 446Q528 442 511 433T474
399L374 273L506 113Q525 91 536 82T566 68L598 60V0H297V58L331 65Q365 72 336 106L261 197L196 115Q183 99 181 86T200 66L226 58V0H6Z" />
<glyph unicode="y" horiz-adv-x="604" d="M111 -229Q61 -229 31 -206T0 -145Q0 -110 23 -87T81 -64Q139 -64 139 -113Q139 -121 138 -134T132 -166Q153 -163 169 -152T201 -117T233 -55L256 -3L93 394Q81 423 73 431T45 443L12 451L22 513H311V454L263 447Q243
444 239 433T244 396L331 169H336L425 389Q435 414 431 427T404 444L359 454L369 513H596V453L559 445Q541 441 534 431T512 388L335 -22Q302 -99 270 -144T200 -209T111 -229Z" />
<glyph unicode="z" horiz-adv-x="519" d="M30 0V65L303 439H224Q186 439 166 430T134 396T107 326L33 321L45 513H483V456L206 76H296Q329 76 348 80T378 96T400 133T425 196H497L483 0H30Z" />
<glyph unicode="{" horiz-adv-x="357" d="M244 -228Q180 -228 145 -194T109 -102Q109 -80 112 -47T119 25T126 105T129 185Q129 224 118 241T87 264T42 269V341Q68 341 87 348T118 376T129 435Q129 464 126 498T119 569T112 639T109 697Q109 755 145 788T246 821Q265
821 290 819T329 811L317 751Q305 754 297 755T280 756Q255 756 248 741T240 706Q240 684 242 649T247 573T252 497T254 438Q254 398 241 372T208 330T164 307Q187 297 207 281T241 238T254 175Q254 139 252 101T247 25T242 -47T240 -107Q240 -142 251 -152T283
-163Q288 -163 296 -162T321 -157L333 -216Q312 -223 288 -225T244 -228Z" />
<glyph unicode="|" horiz-adv-x="438" d="M168 -110V802H270V-110H168Z" />
<glyph unicode="}" horiz-adv-x="357" d="M113 -227Q94 -227 70 -225T24 -215L36 -156Q52 -160 61 -161T74 -162Q94 -162 105 -152T117 -106Q117 -80 115 -46T110 25T105 101T103 176Q103 213 116 239T150 281T193 308Q171 316 150 331T116 372T103 439Q103 462
105 498T110 574T115 649T117 707Q117 727 110 742T77 757Q69 757 61 756T40 752L28 812Q42 817 67 819T111 822Q176 822 212 789T248 698Q248 673 245 640T238 571T231 500T228 436Q228 398 239 378T269 350T315 342V270Q290 270 271 265T240 243T228 186Q228
148 231 107T238 26T245 -46T248 -101Q248 -159 213 -193T113 -227Z" />
<glyph unicode="~" horiz-adv-x="582" d="M134 218L70 244Q87 318 113 349T180 380Q204 380 236 374T303 361T368 347T419 341Q436 341 449 353T475 392L540 366Q528 313 512 284T474 242T428 230Q403 230 371 235T306 249T243 262T192 268Q175 268 163 258T134 218Z" />
<glyph unicode="&#xa0;" horiz-adv-x="180" />
<glyph unicode="&#xa1;" horiz-adv-x="347" d="M214 319V281Q214 221 221 160T236 42T252 -58T259 -130Q259 -170 234 -188T176 -207Q138 -207 116 -189T93 -134Q93 -104 100 -57T117 47T134 164T142 282V319H214ZM177 522Q213 522 236 505T259 446Q259 404 236
386T177 367Q139 367 116 385T93 444Q93 486 116 504T177 522Z" />
<glyph unicode="&#xa2;" horiz-adv-x="526" d="M139 -40L300 653H395L234 -40H139ZM278 26Q202 26 147 59T63 150T34 278Q34 365 67 430T161 531T306 567Q380 567 422 545T482 490T500 429Q500 396 481 375T424 354Q412 354 395 357T364 372T350 408Q350 419 357
434T381 475Q368 484 352 488T314 493Q267 493 238 468T196 400T183 302Q183 214 219 173T313 131Q361 131 393 146T458 187L500 139Q463 95 409 61T278 26Z" />
<glyph unicode="&#xa3;" horiz-adv-x="580" d="M56 0L44 69Q81 83 106 104T146 155T160 217Q160 243 153 268T133 314H20L30 390H101Q83 425 76 452T68 511Q68 572 99 617T187 688T317 714Q412 714 467 679T522 583Q522 549 498 528T434 506Q397 506 378 520T358
561Q358 572 364 588T386 630Q374 636 355 639T318 643Q220 643 220 528Q220 497 229 468T263 390H466V314H292Q299 296 303 278T307 246Q307 213 288 180T228 108L220 101H360Q390 101 409 108T442 137T474 200H555L528 0H56Z" />
<glyph unicode="&#xa4;" horiz-adv-x="539" d="M449 181L359 251Q338 241 315 237T265 233Q210 233 170 250L84 182L35 231L98 311Q84 334 78 359T71 413Q71 471 98 515L34 597L83 646L168 578Q190 589 217 594T271 600Q297 600 321 596T365 582L450 648L499 600L437
520Q450 499 456 476T463 422Q463 390 456 363T433 312L498 230L449 181ZM265 300Q306 300 324 331T343 418Q343 477 324 503T269 530Q233 530 212 503T191 416Q191 361 210 331T265 300Z" />
<glyph unicode="&#xa5;" horiz-adv-x="695" d="M177 0V60L254 70Q276 74 280 85T285 118V264L102 582Q88 607 76 618T42 633L8 640V700H324V643L279 636Q259 633 253 622T260 586L382 360H387L506 581Q519 606 515 617T489 632L436 644V700H687V643L658 635Q640
632 628 620T600 580L433 272V117Q433 94 438 84T465 70L542 60V0H177ZM90 301L100 367H313L334 301H90ZM90 171L100 241H608V171H90ZM403 301L437 367H608V301H403Z" />
<glyph unicode="&#xa6;" horiz-adv-x="438" d="M168 -110V299H269L270 -110H168ZM168 420V803H269L270 420H168Z" />
<glyph unicode="&#xa7;" horiz-adv-x="686" d="M294 -164Q217 -164 171 -136T124 -60Q124 -25 151 -1T218 23Q246 23 263 10T280 -24Q280 -35 273 -51T251 -86Q261 -90 274 -92T303 -95Q341 -95 364 -74T387 -17Q387 1 376 17T336 56T252 114Q178 162 136 198T76
267T58 338Q58 387 83 426T161 496Q154 508 151 524T147 555Q147 602 172 639T242 697T343 719Q417 719 462 691T508 618Q508 584 484 562T421 539Q390 539 373 550T355 583Q355 592 361 607T378 642Q369 647 359 649T339 651Q306 651 288 632T269 578Q269 542
307 503T425 419Q492 381 528 351T579 290T594 215Q594 172 567 130T493 59Q505 33 505 0Q505 -48 478 -85T404 -143T294 -164ZM452 122Q475 145 475 187Q475 220 436 256T307 341Q282 355 255 378T199 434Q175 407 175 377Q175 345 212 308T335 218Q366 199 396
175T452 122Z" />
<glyph unicode="&#xa8;" horiz-adv-x="500" d="M361 613Q324 613 302 634T279 689Q279 722 301 743T361 764Q402 764 423 744T444 689Q444 655 421 634T361 613ZM138 613Q101 613 79 634T56 689Q56 722 78 743T138 764Q179 764 200 744T221 689Q221 655 198 634T138 613Z" />
<glyph unicode="&#xa9;" horiz-adv-x="828" d="M414 -12Q295 -12 217 31T99 150T60 319Q60 400 88 463T165 571T278 638T416 662Q523 662 602 622T724 509T768 336Q768 233 724 155T601 32T414 -12ZM424 112Q359 112 312 138T241 211T216 313Q216 381 242 427T311
498T408 522Q446 522 469 511T505 487L512 526H558L582 384L524 374Q512 418 487 443T427 468Q378 468 353 431T328 325Q328 275 342 244T382 197T437 182Q475 182 504 201T549 240L591 201Q576 181 554 161T499 126T424 112ZM414 55Q495 55 556 89T651 186T685
331Q685 412 653 472T560 565T415 599Q339 599 277 565T179 469T142 320Q142 245 171 185T261 90T414 55Z" />
<glyph unicode="&#xaa;" horiz-adv-x="442" d="M157 362Q125 362 98 372T55 403T38 460Q38 510 72 535T179 571Q202 574 215 575T250 578V624Q250 658 238 675T194 692Q176 692 164 689T140 679Q160 648 160 638Q160 626 146 611T97 595Q70 595 57 609T43 643Q43
672 66 695T129 731T215 745Q267 745 300 732T350 687T367 600V456Q367 441 372 436T388 430Q396 430 405 433T427 442L440 397Q423 383 402 373T352 362Q320 362 298 379T271 422Q255 393 227 378T157 362ZM199 430Q214 430 225 435T243 454T250 487V525Q226 525
205 521T169 505T155 469Q155 451 166 441T199 430Z" />
<glyph unicode="&#xab;" horiz-adv-x="535" d="M447 49L278 207Q250 232 250 264Q250 282 258 296T283 326L446 481L494 446L388 268L495 84L447 49ZM232 49L63 207Q35 232 35 264Q35 282 43 296T68 326L231 481L279 446L173 268L280 84L232 49Z" />
<glyph unicode="&#xac;" horiz-adv-x="582" d="M397 141V287H55V381H505V141H397Z" />
<glyph unicode="&#xad;" horiz-adv-x="358" d="M31 233V329H328V233H31Z" />
<glyph unicode="&#xae;" horiz-adv-x="489" d="M244 393Q180 393 137 417T72 484T50 579Q50 639 76 682T147 749T245 773Q334 773 386 722T439 586Q439 529 414 486T345 418T244 393ZM326 464Q336 464 347 467T365 478L361 494Q357 493 353 492T345 491Q337 491
332 498T319 524L309 550Q304 563 296 571T272 584V585Q290 588 310 602T331 645Q331 678 308 690T252 702H145V682L163 679Q171 678 172 675T174 663V509Q174 502 173 498T163 492L145 489V469H253V489L235 492Q228 493 226 497T223 509V572H227Q240 572 245 566T257
545L273 508Q281 487 291 476T326 464ZM223 594V679H235Q256 679 267 670T279 640Q279 621 269 608T230 594H223Z" />
<glyph unicode="&#xaf;" horiz-adv-x="500" d="M95 627V719H405V627H95Z" />
<glyph unicode="&#xb0;" horiz-adv-x="362" d="M180 545Q110 545 77 579T43 661Q43 714 78 752T184 790Q250 790 284 757T319 670Q319 618 284 582T180 545ZM181 604Q203 604 220 619T238 669Q238 705 221 718T182 731Q159 731 144 715T128 667Q128 634 143 619T181 604Z" />
<glyph unicode="&#xb1;" horiz-adv-x="582" d="M237 141V302H66V396H237V553H345V396H516V302H345V141H237ZM66 0V94H516V0H66Z" />
<glyph unicode="&#xb2;" horiz-adv-x="405" d="M26 374L19 427Q88 491 131 533T196 604T227 656T235 704Q235 737 217 757T163 778Q150 778 137 775T110 763Q126 738 130 729T134 711Q134 698 121 683T73 668Q39 668 26 685T12 723Q12 755 34 781T98 822T197 837Q280
837 322 804T365 716Q365 688 356 663T324 610T259 545T151 456H244Q265 456 277 462T298 484T317 531H379L364 374H26Z" />
<glyph unicode="&#xb3;" horiz-adv-x="413" d="M188 362Q142 362 108 374T49 407T8 450L59 499Q83 474 114 459T178 444Q214 444 233 460T252 509Q252 547 222 563T126 571L131 629Q193 633 217 656T242 714Q242 746 227 763T179 780Q165 780 152 776T128 763Q141
744 144 736T148 723Q148 707 134 692T84 676Q49 676 35 694T20 735Q20 762 41 785T102 823T197 837Q282 837 324 806T366 724Q366 685 339 658T262 618V614Q320 607 351 578T383 501Q383 458 357 427T287 379T188 362Z" />
<glyph unicode="&#xb4;" horiz-adv-x="500" d="M196 580L163 615L282 768Q294 784 302 790T321 797Q356 797 372 775T389 734Q389 718 380 703T352 676L196 580Z" />
<glyph unicode="&#xb5;" horiz-adv-x="629" d="M88 -233L76 -227Q76 -227 74 -192T69 -97T66 42Q66 70 66 109T65 193T64 283T63 369T62 442T62 493T61 512L209 521L221 516Q215 437 212 367T206 233T204 109Q214 99 237 94T282 88Q325 88 353 121T382 222Q382
227 382 249T381 305T380 374T379 441T379 492T378 512L526 521L538 516Q534 458 531 409T526 319T523 243T522 178Q522 147 524 125T536 91T565 79Q583 79 602 87L619 27Q603 13 576 0T510 -14Q453 -14 429 12T395 72H393Q371 30 348 8T281 -14Q259 -14 240 -7T210
11H209Q212 -41 218 -91T229 -173T234 -206L88 -233Z" />
<glyph unicode="&#xb6;" horiz-adv-x="636" d="M261 -144V-82L346 -74Q360 -73 367 -66T375 -39V700H586V640L531 634Q516 633 510 624T503 594V-144H261ZM285 239Q176 239 112 300T47 466Q47 571 107 635T289 700H321V239H285Z" />
<glyph unicode="&#xb7;" horiz-adv-x="303" d="M155 225Q118 225 94 243T70 305Q70 349 94 368T155 388Q195 388 219 369T244 307Q244 264 220 245T155 225Z" />
<glyph unicode="&#xb8;" horiz-adv-x="500" d="M246 -238Q206 -238 173 -224T127 -199L148 -149Q168 -159 187 -163T223 -168Q240 -168 252 -159T265 -131Q265 -115 255 -104T221 -93Q211 -93 201 -94T182 -97L173 -71L206 13H276L256 -45Q309 -40 342 -65T375
-135Q375 -185 338 -211T246 -238Z" />
<glyph unicode="&#xb9;" horiz-adv-x="327" d="M19 374V430L85 441Q99 443 102 448T106 466V721Q106 738 103 744T86 752L15 759L20 810L212 835L231 821V466Q231 453 234 448T250 441L316 430V374H19Z" />
<glyph unicode="&#xba;" horiz-adv-x="447" d="M220 362Q130 362 83 413T35 544Q35 616 61 660T133 725T231 745Q313 745 362 699T412 562Q412 497 387 453T319 385T220 362ZM228 422Q257 422 272 452T288 546Q288 611 272 647T220 684Q189 684 174 656T158 565Q158
494 176 458T228 422Z" />
<glyph unicode="&#xbb;" horiz-adv-x="537" d="M306 49L255 87L364 265L260 446L311 483L474 323Q488 309 495 296T502 266Q502 248 494 234T469 204L306 49ZM91 49L40 87L149 265L45 446L96 483L259 323Q273 309 280 296T287 266Q287 248 279 234T254 204L91 49Z" />
<glyph unicode="&#xbc;" horiz-adv-x="956" d="M32 504V560L98 571Q112 573 115 578T119 596V851Q119 868 116 874T99 882L28 889L33 940L225 965L244 951V596Q244 583 247 578T263 571L329 560V504H32ZM247 -14L623 714H723L347 -14H247ZM732 0V71H523L512 132L723
448L834 462L853 445V144H919V71H853V0H732ZM596 144H732V347H728L596 144Z" />
<glyph unicode="&#xbd;" horiz-adv-x="980" d="M32 503V559L98 570Q112 572 115 577T119 595V850Q119 867 116 873T99 881L28 888L33 939L225 964L244 950V595Q244 582 247 577T263 570L329 559V503H32ZM233 -14L609 714H709L333 -14H233ZM600 0L593 53Q662 117
705 159T770 230T801 282T809 330Q809 363 791 383T737 404Q724 404 711 401T684 389Q700 364 704 355T708 337Q708 324 695 309T647 294Q613 294 600 311T586 349Q586 381 608 407T672 448T771 463Q854 463 896 430T939 342Q939 314 930 289T898 236T833 171T725
82H818Q839 82 851 88T872 110T891 157H953L938 0H600Z" />
<glyph unicode="&#xbe;" horiz-adv-x="988" d="M251 -14L627 714H727L351 -14H251ZM737 0V71H528L517 132L728 448L839 462L858 445V144H924V71H858V0H737ZM601 144H737V347H733L601 144ZM194 495Q148 495 114 507T55 540T14 583L65 632Q89 607 120 592T184 577Q220
577 239 593T258 642Q258 680 228 696T132 704L137 762Q199 766 223 789T248 847Q248 879 233 896T185 913Q171 913 158 909T134 896Q147 877 150 869T154 856Q154 840 140 825T90 809Q55 809 41 827T26 868Q26 895 47 918T108 956T203 970Q288 970 330 939T372
857Q372 818 345 791T268 751V747Q326 740 357 711T389 634Q389 591 363 560T293 512T194 495Z" />
<glyph unicode="&#xbf;" horiz-adv-x="527" d="M323 324V190Q323 159 317 140T296 103T257 62Q217 24 204 1T190 -50Q190 -91 215 -109T280 -127Q311 -127 332 -118T367 -98Q350 -76 344 -65T338 -45Q338 -26 354 -6T406 14Q443 14 460 -6T477 -54Q477 -93 450
-127T374 -181T261 -202Q163 -202 110 -160T57 -38Q57 -6 68 22T108 83T189 164Q216 189 230 205T250 235T255 265V324H323ZM288 527Q324 527 347 510T370 451Q370 409 347 391T288 372Q250 372 227 390T204 449Q204 491 227 509T288 527Z" />
<glyph unicode="&#xc0;" horiz-adv-x="740" d="M12 0V60L59 67Q77 71 85 82T103 122L311 700H439L645 119Q653 95 660 83T688 67L728 60V0H419V60L465 67Q485 70 488 81T484 117L453 215H231L200 121Q192 97 196 85T223 68L267 60V0H12ZM252 283H433L348 552H344L252
283ZM450 751L285 817Q259 828 247 841T235 880Q235 902 250 922T291 943Q302 943 311 938T334 921L477 794L450 751Z" />
<glyph unicode="&#xc1;" horiz-adv-x="740" d="M12 0V60L59 67Q77 71 85 82T103 122L311 700H439L645 119Q653 95 660 83T688 67L728 60V0H419V60L465 67Q485 70 488 81T484 117L453 215H231L200 121Q192 97 196 85T223 68L267 60V0H12ZM252 283H433L348 552H344L252
283ZM298 751L271 794L414 921Q427 932 437 937T457 943Q483 943 498 923T513 880Q513 854 501 841T463 817L298 751Z" />
<glyph unicode="&#xc2;" horiz-adv-x="740" d="M12 0V60L59 67Q77 71 85 82T103 122L311 700H439L645 119Q653 95 660 83T688 67L728 60V0H419V60L465 67Q485 70 488 81T484 117L453 215H231L200 121Q192 97 196 85T223 68L267 60V0H12ZM252 283H433L348 552H344L252
283ZM227 744L194 786L320 924Q335 941 346 948T374 955Q388 955 401 949T433 921L554 787L521 744L374 829L227 744Z" />
<glyph unicode="&#xc3;" horiz-adv-x="740" d="M12 0V60L59 67Q77 71 85 82T103 122L311 700H439L645 119Q653 95 660 83T688 67L728 60V0H419V60L465 67Q485 70 488 81T484 117L453 215H231L200 121Q192 97 196 85T223 68L267 60V0H12ZM252 283H433L348 552H344L252
283ZM453 768Q434 768 415 773T373 788Q326 809 304 817T268 825Q258 825 251 819T227 787L187 817Q214 876 238 900T295 925Q312 925 333 919T386 899Q420 885 437 878T463 868T479 866Q489 866 496 873T520 903L560 876Q534 817 510 793T453 768Z" />
<glyph unicode="&#xc4;" horiz-adv-x="740" d="M12 0V60L59 67Q77 71 85 82T103 122L311 700H439L645 119Q653 95 660 83T688 67L728 60V0H419V60L465 67Q485 70 488 81T484 117L453 215H231L200 121Q192 97 196 85T223 68L267 60V0H12ZM252 283H433L348 552H344L252
283ZM485 771Q448 771 426 792T403 847Q403 880 425 901T485 922Q526 922 547 902T568 847Q568 813 545 792T485 771ZM262 771Q225 771 203 792T180 847Q180 880 202 901T262 922Q303 922 324 902T345 847Q345 813 322 792T262 771Z" />
<glyph unicode="&#xc5;" horiz-adv-x="740" d="M12 0V60L59 67Q77 71 85 82T103 122L311 700H439L645 119Q653 95 660 83T688 67L728 60V0H419V60L465 67Q485 70 488 81T484 117L453 215H231L200 121Q192 97 196 85T223 68L267 60V0H12ZM252 283H433L348 552H344L252
283ZM371 742Q311 742 277 772T242 850Q242 903 280 934T378 966Q443 966 476 936T509 855Q509 804 469 773T371 742ZM374 796Q394 796 405 811T417 856Q417 887 406 900T374 914Q353 914 343 899T332 856Q332 824 343 810T374 796Z" />
<glyph unicode="&#xc6;" horiz-adv-x="1019" d="M12 0V60L60 67Q77 70 86 76T110 110L367 631L299 640V700H924L962 532L897 515Q879 565 861 589T817 622T748 630H656V391H707Q738 391 754 393T778 404T790 429T800 474L858 481V248L800 238Q795 274 790 291T771
315T724 323H656V70H774Q823 70 849 77T890 109T919 188H988L964 0H429V60L477 69Q499 73 503 85T508 120V323H306L209 122Q198 99 199 86T225 68L267 60V0H12ZM339 391H508V630H454L339 391Z" />
<glyph unicode="&#xc7;" horiz-adv-x="719" d="M387 -14Q279 -14 203 28T85 149T44 339Q44 453 84 537T199 667T373 714Q441 714 482 693T545 651L555 716H613L652 481L577 463Q556 541 511 585T389 629Q325 629 283 593T221 495T200 350Q200 261 228 201T303
111T409 81Q458 81 493 97T554 137T600 187L661 137Q637 103 601 68T513 10T387 -14ZM364 -238Q324 -238 291 -224T245 -199L266 -149Q286 -159 305 -163T341 -168Q358 -168 370 -159T383 -131Q383 -115 373 -104T339 -93Q329 -93 319 -94T300 -97L291 -71L324
13H394L374 -45Q427 -40 460 -65T493 -135Q493 -185 456 -211T364 -238Z" />
<glyph unicode="&#xc8;" horiz-adv-x="640" d="M50 0V60L98 69Q117 73 123 82T129 120V584Q129 610 123 618T96 631L50 640V700H545L583 532L518 515Q501 563 484 588T440 621T369 630H277V391H328Q366 391 382 395T406 416T421 474L479 481V248L421 238Q417 275
410 293T389 317T345 323H277V70H395Q445 70 471 78T512 111T540 188H609L585 0H50ZM399 751L234 817Q208 828 196 841T184 880Q184 902 199 922T240 943Q251 943 260 938T283 921L426 794L399 751Z" />
<glyph unicode="&#xc9;" horiz-adv-x="640" d="M50 0V60L98 69Q117 73 123 82T129 120V584Q129 610 123 618T96 631L50 640V700H545L583 532L518 515Q501 563 484 588T440 621T369 630H277V391H328Q366 391 382 395T406 416T421 474L479 481V248L421 238Q417 275
410 293T389 317T345 323H277V70H395Q445 70 471 78T512 111T540 188H609L585 0H50ZM247 751L220 794L363 921Q376 932 386 937T406 943Q432 943 447 923T462 880Q462 854 450 841T412 817L247 751Z" />
<glyph unicode="&#xca;" horiz-adv-x="640" d="M50 0V60L98 69Q117 73 123 82T129 120V584Q129 610 123 618T96 631L50 640V700H545L583 532L518 515Q501 563 484 588T440 621T369 630H277V391H328Q366 391 382 395T406 416T421 474L479 481V248L421 238Q417 275
410 293T389 317T345 323H277V70H395Q445 70 471 78T512 111T540 188H609L585 0H50ZM176 744L143 786L269 924Q284 941 295 948T323 955Q337 955 350 949T382 921L503 787L470 744L323 829L176 744Z" />
<glyph unicode="&#xcb;" horiz-adv-x="640" d="M50 0V60L98 69Q117 73 123 82T129 120V584Q129 610 123 618T96 631L50 640V700H545L583 532L518 515Q501 563 484 588T440 621T369 630H277V391H328Q366 391 382 395T406 416T421 474L479 481V248L421 238Q417 275
410 293T389 317T345 323H277V70H395Q445 70 471 78T512 111T540 188H609L585 0H50ZM434 771Q397 771 375 792T352 847Q352 880 374 901T434 922Q475 922 496 902T517 847Q517 813 494 792T434 771ZM211 771Q174 771 152 792T129 847Q129 880 151 901T211 922Q252
922 273 902T294 847Q294 813 271 792T211 771Z" />
<glyph unicode="&#xcc;" horiz-adv-x="425" d="M50 0V60L101 69Q127 74 132 82T138 121V579Q138 610 133 618T101 631L50 640V700H375V640L318 630Q296 626 291 617T286 580V117Q286 92 291 83T318 70L375 60V0H50ZM544 751L379 817Q353 828 341 841T329 880Q329
902 344 922T385 943Q396 943 405 938T428 921L571 794L544 751Z" />
<glyph unicode="&#xcd;" horiz-adv-x="425" d="M50 0V60L101 69Q127 74 132 82T138 121V579Q138 610 133 618T101 631L50 640V700H375V640L318 630Q296 626 291 617T286 580V117Q286 92 291 83T318 70L375 60V0H50ZM392 751L365 794L508 921Q521 932 531 937T551
943Q577 943 592 923T607 880Q607 854 595 841T557 817L392 751Z" />
<glyph unicode="&#xce;" horiz-adv-x="425" d="M50 0V60L101 69Q127 74 132 82T138 121V579Q138 610 133 618T101 631L50 640V700H375V640L318 630Q296 626 291 617T286 580V117Q286 92 291 83T318 70L375 60V0H50ZM321 744L288 786L414 924Q429 941 440 948T468
955Q482 955 495 949T527 921L648 787L615 744L468 829L321 744Z" />
<glyph unicode="&#xcf;" horiz-adv-x="415" d="M50 0V60L101 69Q127 74 132 82T138 121V579Q138 610 133 618T101 631L50 640V700H375V640L318 630Q296 626 291 617T286 580V117Q286 92 291 83T318 70L375 60V0H50ZM577 771Q540 771 518 792T495 847Q495 880 517
901T577 922Q618 922 639 902T660 847Q660 813 637 792T577 771ZM354 771Q317 771 295 792T272 847Q272 880 294 901T354 922Q395 922 416 902T437 847Q437 813 414 792T354 771Z" />
<glyph unicode="&#xd0;" horiz-adv-x="770" d="M29 322L39 399H451V322H29ZM50 0V60L107 71Q124 74 129 85T134 123V582Q134 605 131 615T105 629L50 640V700H369Q475 700 555 668T681 564T726 378Q726 296 705 227T636 107T510 28T319 0H50ZM344 71Q416 71 461
96T530 164T563 261T572 375Q572 450 547 507T467 597T319 630H282V76Q290 75 309 73T344 71Z" />
<glyph unicode="&#xd1;" horiz-adv-x="832" d="M50 0V60L104 70Q125 74 129 84T134 120V584Q134 607 130 616T103 630L50 640V700H288L605 171H608V584Q608 607 604 616T577 630L524 640V700H782V640L728 630Q706 626 702 616T698 580V0H545L228 529H224V116Q224
93 229 84T256 70L308 60V0H50ZM495 768Q476 768 457 773T415 788Q368 809 346 817T310 825Q300 825 293 819T269 787L229 817Q256 876 280 900T337 925Q354 925 375 919T428 899Q462 885 479 878T505 868T521 866Q531 866 538 873T562 903L602 876Q576 817 552
793T495 768Z" />
<glyph unicode="&#xd2;" horiz-adv-x="767" d="M383 -14Q267 -14 192 32T81 158T44 337Q44 436 71 507T147 624T259 692T394 714Q487 714 561 676T679 561T723 368Q723 261 685 175T571 37T383 -14ZM392 70Q475 70 522 137T569 350Q569 434 547 497T483 596T378
631Q291 631 246 563T200 357Q200 273 220 208T283 107T392 70ZM463 751L298 817Q272 828 260 841T248 880Q248 902 263 922T304 943Q315 943 324 938T347 921L490 794L463 751Z" />
<glyph unicode="&#xd3;" horiz-adv-x="767" d="M383 -14Q267 -14 192 32T81 158T44 337Q44 436 71 507T147 624T259 692T394 714Q487 714 561 676T679 561T723 368Q723 261 685 175T571 37T383 -14ZM392 70Q475 70 522 137T569 350Q569 434 547 497T483 596T378
631Q291 631 246 563T200 357Q200 273 220 208T283 107T392 70ZM311 751L284 794L427 921Q440 932 450 937T470 943Q496 943 511 923T526 880Q526 854 514 841T476 817L311 751Z" />
<glyph unicode="&#xd4;" horiz-adv-x="767" d="M383 -14Q267 -14 192 32T81 158T44 337Q44 436 71 507T147 624T259 692T394 714Q487 714 561 676T679 561T723 368Q723 261 685 175T571 37T383 -14ZM392 70Q475 70 522 137T569 350Q569 434 547 497T483 596T378
631Q291 631 246 563T200 357Q200 273 220 208T283 107T392 70ZM240 744L207 786L333 924Q348 941 359 948T387 955Q401 955 414 949T446 921L567 787L534 744L387 829L240 744Z" />
<glyph unicode="&#xd5;" horiz-adv-x="772" d="M383 -14Q267 -14 192 32T81 158T44 337Q44 436 71 507T147 624T259 692T394 714Q487 714 561 676T679 561T723 368Q723 261 685 175T571 37T383 -14ZM392 70Q475 70 522 137T569 350Q569 434 547 497T483 596T378
631Q291 631 246 563T200 357Q200 273 220 208T283 107T392 70ZM468 768Q449 768 430 773T388 788Q341 809 319 817T283 825Q273 825 266 819T242 787L202 817Q229 876 253 900T310 925Q327 925 348 919T401 899Q435 885 452 878T478 868T494 866Q504 866 511 873T535
903L575 876Q549 817 525 793T468 768Z" />
<glyph unicode="&#xd6;" horiz-adv-x="767" d="M383 -14Q267 -14 192 32T81 158T44 337Q44 436 71 507T147 624T259 692T394 714Q487 714 561 676T679 561T723 368Q723 261 685 175T571 37T383 -14ZM392 70Q475 70 522 137T569 350Q569 434 547 497T483 596T378
631Q291 631 246 563T200 357Q200 273 220 208T283 107T392 70ZM498 771Q461 771 439 792T416 847Q416 880 438 901T498 922Q539 922 560 902T581 847Q581 813 558 792T498 771ZM275 771Q238 771 216 792T193 847Q193 880 215 901T275 922Q316 922 337 902T358
847Q358 813 335 792T275 771Z" />
<glyph unicode="&#xd7;" horiz-adv-x="582" d="M436 94L291 240L147 97L81 162L225 307L80 451L150 515L291 373L438 522L503 455L355 306L503 161L436 94Z" />
<glyph unicode="&#xd8;" horiz-adv-x="767" d="M26 -14L632 714H737L131 -14H26ZM383 -14Q267 -14 192 32T81 158T44 337Q44 436 71 507T147 624T259 692T394 714Q487 714 561 676T679 561T723 368Q723 261 685 175T571 37T383 -14ZM392 70Q475 70 522 137T569
350Q569 434 547 497T483 596T378 631Q291 631 246 563T200 357Q200 273 220 208T283 107T392 70Z" />
<glyph unicode="&#xd9;" horiz-adv-x="790" d="M402 -14Q298 -14 237 21T150 117T123 260V583Q123 606 118 616T90 630L36 639V700H357V639L301 630Q280 626 276 614T271 579V274Q271 213 282 170T325 103T421 80Q486 80 519 107T565 178T577 273V583Q577 606
572 616T544 630L491 639V700H758V639L703 630Q681 626 677 614T672 579V271Q672 124 601 55T402 -14ZM494 751L329 817Q303 828 291 841T279 880Q279 902 294 922T335 943Q346 943 355 938T378 921L521 794L494 751Z" />
<glyph unicode="&#xda;" horiz-adv-x="790" d="M402 -14Q298 -14 237 21T150 117T123 260V583Q123 606 118 616T90 630L36 639V700H357V639L301 630Q280 626 276 614T271 579V274Q271 213 282 170T325 103T421 80Q486 80 519 107T565 178T577 273V583Q577 606
572 616T544 630L491 639V700H758V639L703 630Q681 626 677 614T672 579V271Q672 124 601 55T402 -14ZM342 751L315 794L458 921Q471 932 481 937T501 943Q527 943 542 923T557 880Q557 854 545 841T507 817L342 751Z" />
<glyph unicode="&#xdb;" horiz-adv-x="790" d="M402 -14Q298 -14 237 21T150 117T123 260V583Q123 606 118 616T90 630L36 639V700H357V639L301 630Q280 626 276 614T271 579V274Q271 213 282 170T325 103T421 80Q486 80 519 107T565 178T577 273V583Q577 606
572 616T544 630L491 639V700H758V639L703 630Q681 626 677 614T672 579V271Q672 124 601 55T402 -14ZM271 744L238 786L364 924Q379 941 390 948T418 955Q432 955 445 949T477 921L598 787L565 744L418 829L271 744Z" />
<glyph unicode="&#xdc;" horiz-adv-x="790" d="M402 -14Q298 -14 237 21T150 117T123 260V583Q123 606 118 616T90 630L36 639V700H357V639L301 630Q280 626 276 614T271 579V274Q271 213 282 170T325 103T421 80Q486 80 519 107T565 178T577 273V583Q577 606
572 616T544 630L491 639V700H758V639L703 630Q681 626 677 614T672 579V271Q672 124 601 55T402 -14ZM529 771Q492 771 470 792T447 847Q447 880 469 901T529 922Q570 922 591 902T612 847Q612 813 589 792T529 771ZM306 771Q269 771 247 792T224 847Q224 880
246 901T306 922Q347 922 368 902T389 847Q389 813 366 792T306 771Z" />
<glyph unicode="&#xdd;" horiz-adv-x="695" d="M177 0V60L254 70Q276 74 280 85T285 118V264L102 582Q88 607 76 618T42 633L8 640V700H324V643L279 636Q259 633 253 622T260 586L382 360H387L506 581Q519 606 515 617T489 632L436 644V700H687V643L658 635Q640
632 628 620T600 580L433 272V117Q433 94 438 84T465 70L542 60V0H177ZM301 751L274 794L417 921Q430 932 440 937T460 943Q486 943 501 923T516 880Q516 854 504 841T466 817L301 751Z" />
<glyph unicode="&#xde;" horiz-adv-x="648" d="M51 0V60L102 69Q128 74 133 82T139 121V579Q139 610 134 618T102 631L51 640V700H376V640L319 630Q297 626 292 617T287 580V560H354Q430 560 491 544T587 486T623 367Q623 304 600 260T539 189T454 150T362 137Q347
137 324 138T287 140V117Q287 92 292 83T319 70L376 60V0H51ZM287 209Q294 208 303 208T327 207Q401 207 435 250T469 361Q469 423 437 456T335 490H287V209Z" />
<glyph unicode="&#xdf;" horiz-adv-x="726" d="M316 -14L300 165L373 169Q390 118 426 91T503 63Q531 63 554 78T578 133Q578 157 562 172T519 200T464 226T409 256T367 299T350 364Q350 398 360 424T387 472T419 517T445 569T456 634Q456 669 444 686T410 710T362
717Q313 717 281 684T249 580V0H22V59L79 68Q101 72 105 84T110 119V438H30V494L110 513V545Q110 618 143 671T236 753T377 782Q430 782 475 768T549 724T577 650Q577 613 561 585T523 531T485 478T468 418Q468 398 485 384T528 357T584 331T640 297T684 247T701
173Q701 118 676 76T608 10T511 -14Q461 -14 433 -2T387 23L376 -14H316Z" />
<glyph unicode="&#xe0;" horiz-adv-x="557" d="M190 -14Q119 -14 78 24T36 128Q36 193 73 226T173 272T317 289V365Q317 414 299 436T243 458Q220 458 199 452T160 434Q185 391 185 377Q185 352 165 338T109 323Q77 323 59 340T41 387Q41 425 71 456T152 507T260
527Q364 527 412 480T460 330V115Q460 69 498 69Q506 69 516 71T540 77L554 27Q531 8 501 -3T437 -14Q400 -14 374 6T339 64Q289 -14 190 -14ZM247 76Q282 76 299 97T317 158V225Q256 225 220 208T183 144Q183 112 199 94T247 76ZM317 580L161 676Q142 687 133
702T124 734Q124 753 141 775T192 797Q203 797 211 791T231 768L350 615L317 580Z" />
<glyph unicode="&#xe1;" horiz-adv-x="557" d="M190 -14Q119 -14 78 24T36 128Q36 193 73 226T173 272T317 289V365Q317 414 299 436T243 458Q220 458 199 452T160 434Q185 391 185 377Q185 352 165 338T109 323Q77 323 59 340T41 387Q41 425 71 456T152 507T260
527Q364 527 412 480T460 330V115Q460 69 498 69Q506 69 516 71T540 77L554 27Q531 8 501 -3T437 -14Q400 -14 374 6T339 64Q289 -14 190 -14ZM247 76Q282 76 299 97T317 158V225Q256 225 220 208T183 144Q183 112 199 94T247 76ZM202 580L169 615L288 768Q300
784 308 790T327 797Q362 797 378 775T395 734Q395 718 386 703T358 676L202 580Z" />
<glyph unicode="&#xe2;" horiz-adv-x="557" d="M190 -14Q119 -14 78 24T36 128Q36 193 73 226T173 272T317 289V365Q317 414 299 436T243 458Q220 458 199 452T160 434Q185 391 185 377Q185 352 165 338T109 323Q77 323 59 340T41 387Q41 425 71 456T152 507T260
527Q364 527 412 480T460 330V115Q460 69 498 69Q506 69 516 71T540 77L554 27Q531 8 501 -3T437 -14Q400 -14 374 6T339 64Q289 -14 190 -14ZM247 76Q282 76 299 97T317 158V225Q256 225 220 208T183 144Q183 112 199 94T247 76ZM110 580L76 617L197 768Q214 788
227 795T256 802Q277 802 289 793T321 760L436 617L402 580L256 678L110 580Z" />
<glyph unicode="&#xe3;" horiz-adv-x="557" d="M190 -14Q119 -14 78 24T36 128Q36 193 73 226T173 272T317 289V365Q317 414 299 436T243 458Q220 458 199 452T160 434Q185 391 185 377Q185 352 165 338T109 323Q77 323 59 340T41 387Q41 425 71 456T152 507T260
527Q364 527 412 480T460 330V115Q460 69 498 69Q506 69 516 71T540 77L554 27Q531 8 501 -3T437 -14Q400 -14 374 6T339 64Q289 -14 190 -14ZM247 76Q282 76 299 97T317 158V225Q256 225 220 208T183 144Q183 112 199 94T247 76ZM335 612Q322 612 309 614T272
626T197 656Q185 661 172 665T150 669Q140 669 133 663T109 631L69 661Q96 720 120 744T177 769Q194 769 215 763T268 743Q302 729 319 722T345 712T361 710Q371 710 378 717T402 747L442 720Q416 661 392 637T335 612Z" />
<glyph unicode="&#xe4;" horiz-adv-x="557" d="M190 -14Q119 -14 78 24T36 128Q36 193 73 226T173 272T317 289V365Q317 414 299 436T243 458Q220 458 199 452T160 434Q185 391 185 377Q185 352 165 338T109 323Q77 323 59 340T41 387Q41 425 71 456T152 507T260
527Q364 527 412 480T460 330V115Q460 69 498 69Q506 69 516 71T540 77L554 27Q531 8 501 -3T437 -14Q400 -14 374 6T339 64Q289 -14 190 -14ZM247 76Q282 76 299 97T317 158V225Q256 225 220 208T183 144Q183 112 199 94T247 76ZM367 613Q330 613 308 634T285
689Q285 722 307 743T367 764Q408 764 429 744T450 689Q450 655 427 634T367 613ZM144 613Q107 613 85 634T62 689Q62 722 84 743T144 764Q185 764 206 744T227 689Q227 655 204 634T144 613Z" />
<glyph unicode="&#xe5;" horiz-adv-x="557" d="M190 -14Q119 -14 78 24T36 128Q36 193 73 226T173 272T317 289V365Q317 414 299 436T243 458Q220 458 199 452T160 434Q185 391 185 377Q185 352 165 338T109 323Q77 323 59 340T41 387Q41 425 71 456T152 507T260
527Q364 527 412 480T460 330V115Q460 69 498 69Q506 69 516 71T540 77L554 27Q531 8 501 -3T437 -14Q400 -14 374 6T339 64Q289 -14 190 -14ZM247 76Q282 76 299 97T317 158V225Q256 225 220 208T183 144Q183 112 199 94T247 76ZM253 582Q193 582 159 612T124
690Q124 743 162 774T260 806Q325 806 358 776T391 695Q391 644 351 613T253 582ZM256 636Q276 636 287 651T299 696Q299 727 288 740T256 754Q235 754 225 739T214 696Q214 664 225 650T256 636Z" />
<glyph unicode="&#xe6;" horiz-adv-x="804" d="M190 -14Q149 -14 114 1T57 47T36 128Q36 199 84 234T215 280Q245 284 266 286T317 289V365Q317 414 299 436T243 458Q215 458 195 451T160 434Q173 412 179 399T185 377Q185 360 170 342T109 323Q75 323 58 341T41
387Q41 425 70 456T148 507T252 527Q302 527 342 512T409 467Q477 527 575 527Q634 527 677 505T745 440T770 336Q770 314 767 286T757 234H459Q459 167 495 129T589 91Q636 91 668 106T732 147L776 99Q756 74 727 48T655 4T553 -14Q489 -14 445 7T372 65Q356 45
332 27T274 -3T190 -14ZM247 76Q267 76 283 84T308 109T317 158V225Q302 225 283 224T246 218Q215 211 199 193T183 144Q183 110 200 93T247 76ZM459 310H629Q631 320 631 335T632 363Q632 416 613 435T561 454Q526 454 504 435T472 383T459 310Z" />
<glyph unicode="&#xe7;" horiz-adv-x="526" d="M278 -14Q202 -14 147 19T63 110T34 238Q34 325 67 390T161 491T306 527Q380 527 422 505T482 450T500 389Q500 356 481 335T424 314Q412 314 395 317T364 332T350 368Q350 379 357 394T381 435Q368 444 352 448T314
453Q267 453 238 428T196 360T183 262Q183 174 219 133T313 91Q361 91 393 106T458 147L500 99Q463 55 409 21T278 -14ZM257 -238Q217 -238 184 -224T138 -199L159 -149Q179 -159 198 -163T234 -168Q251 -168 263 -159T276 -131Q276 -115 266 -104T232 -93Q222
-93 212 -94T193 -97L184 -71L217 13H287L267 -45Q320 -40 353 -65T386 -135Q386 -185 349 -211T257 -238Z" />
<glyph unicode="&#xe8;" horiz-adv-x="528" d="M277 -14Q194 -14 140 21T60 115T34 239Q34 331 67 395T159 493T294 527Q386 527 440 477T494 336Q494 314 491 286T481 234H183Q185 165 220 128T313 91Q360 91 392 106T456 147L500 99Q480 74 451 48T379 4T277
-14ZM183 310H353Q355 320 355 335T356 363Q356 416 336 435T281 454Q231 454 209 412T183 310ZM334 580L178 676Q159 687 150 702T141 734Q141 753 158 775T209 797Q220 797 228 791T248 768L367 615L334 580Z" />
<glyph unicode="&#xe9;" horiz-adv-x="528" d="M277 -14Q194 -14 140 21T60 115T34 239Q34 331 67 395T159 493T294 527Q386 527 440 477T494 336Q494 314 491 286T481 234H183Q185 165 220 128T313 91Q360 91 392 106T456 147L500 99Q480 74 451 48T379 4T277
-14ZM183 310H353Q355 320 355 335T356 363Q356 416 336 435T281 454Q231 454 209 412T183 310ZM226 580L193 615L312 768Q324 784 332 790T351 797Q386 797 402 775T419 734Q419 718 410 703T382 676L226 580Z" />
<glyph unicode="&#xea;" horiz-adv-x="528" d="M277 -14Q194 -14 140 21T60 115T34 239Q34 331 67 395T159 493T294 527Q386 527 440 477T494 336Q494 314 491 286T481 234H183Q185 165 220 128T313 91Q360 91 392 106T456 147L500 99Q480 74 451 48T379 4T277
-14ZM183 310H353Q355 320 355 335T356 363Q356 416 336 435T281 454Q231 454 209 412T183 310ZM134 580L100 617L221 768Q238 788 251 795T280 802Q301 802 313 793T345 760L460 617L426 580L280 678L134 580Z" />
<glyph unicode="&#xeb;" horiz-adv-x="528" d="M277 -14Q194 -14 140 21T60 115T34 239Q34 331 67 395T159 493T294 527Q386 527 440 477T494 336Q494 314 491 286T481 234H183Q185 165 220 128T313 91Q360 91 392 106T456 147L500 99Q480 74 451 48T379 4T277
-14ZM183 310H353Q355 320 355 335T356 363Q356 416 336 435T281 454Q231 454 209 412T183 310ZM391 613Q354 613 332 634T309 689Q309 722 331 743T391 764Q432 764 453 744T474 689Q474 655 451 634T391 613ZM168 613Q131 613 109 634T86 689Q86 722 108 743T168
764Q209 764 230 744T251 689Q251 655 228 634T168 613Z" />
<glyph unicode="&#xec;" horiz-adv-x="353" d="M32 0V60L84 69Q104 72 109 81T114 114V382Q114 416 109 426T78 441L31 448L38 509L245 521L257 516V114Q257 90 262 83T285 70L333 59V0H32ZM472 580L316 676Q297 687 288 702T279 734Q279 753 296 775T347 797Q358
797 366 791T386 768L505 615L472 580Z" />
<glyph unicode="&#xed;" horiz-adv-x="353" d="M32 0V60L84 69Q104 72 109 81T114 114V382Q114 416 109 426T78 441L31 448L38 509L245 521L257 516V114Q257 90 262 83T285 70L333 59V0H32ZM354 580L321 615L440 768Q452 784 460 790T479 797Q514 797 530 775T547
734Q547 718 538 703T510 676L354 580Z" />
<glyph unicode="&#xee;" horiz-adv-x="353" d="M32 0V60L84 69Q104 72 109 81T114 114V382Q114 416 109 426T78 441L31 448L38 509L245 521L257 516V114Q257 90 262 83T285 70L333 59V0H32ZM266 580L232 617L353 768Q370 788 383 795T412 802Q433 802 445 793T477
760L592 617L558 580L412 678L266 580Z" />
<glyph unicode="&#xef;" horiz-adv-x="353" d="M32 0V60L84 69Q104 72 109 81T114 114V382Q114 416 109 426T78 441L31 448L38 509L245 521L257 516V114Q257 90 262 83T285 70L333 59V0H32ZM524 613Q487 613 465 634T442 689Q442 722 464 743T524 764Q565 764
586 744T607 689Q607 655 584 634T524 613ZM301 613Q264 613 242 634T219 689Q219 722 241 743T301 764Q342 764 363 744T384 689Q384 655 361 634T301 613Z" />
<glyph unicode="&#xf0;" horiz-adv-x="587" d="M279 -14Q167 -14 101 52T34 240Q34 308 53 356T106 436T179 481T261 496Q304 496 336 484T400 439L404 441Q393 500 371 544T316 622L222 554L193 617L260 666Q229 684 192 695T112 714L124 777Q194 775 250 764T351
733L467 817L496 753L414 694Q465 653 494 595T536 473T549 349Q549 179 483 83T279 -14ZM292 65Q347 65 372 112T397 257Q397 298 394 333T380 382Q365 402 339 411T287 421Q240 421 213 384T186 254Q186 163 211 114T292 65Z" />
<glyph unicode="&#xf1;" horiz-adv-x="668" d="M34 0V60L82 69Q98 72 103 81T108 117V379Q108 413 103 425T74 441L25 448L32 509L221 520L233 513L240 424H243Q257 448 276 471T327 511T409 527Q477 527 512 504T559 441T572 356V109Q572 89 577 81T603 68L650
60V0H363V59L399 67Q419 72 424 80T429 109V309Q429 345 424 371T404 411T354 425Q306 425 279 394T251 295V113Q251 92 255 84T276 70L318 59V0H34ZM421 612Q408 612 395 614T358 626T283 656Q271 661 258 665T236 669Q226 669 219 663T195 631L155 661Q182 720
206 744T263 769Q280 769 301 763T354 743Q388 729 405 722T431 712T447 710Q457 710 464 717T488 747L528 720Q502 661 478 637T421 612Z" />
<glyph unicode="&#xf2;" horiz-adv-x="594" d="M293 -14Q205 -14 148 20T62 111T34 241Q34 343 71 406T170 498T307 527Q382 527 439 499T528 414T560 272Q560 181 527 117T435 20T293 -14ZM307 65Q360 65 384 110T408 248Q408 354 378 402T291 451Q241 451 213
411T185 277Q185 174 214 120T307 65ZM353 580L197 676Q178 687 169 702T160 734Q160 753 177 775T228 797Q239 797 247 791T267 768L386 615L353 580Z" />
<glyph unicode="&#xf3;" horiz-adv-x="594" d="M293 -14Q205 -14 148 20T62 111T34 241Q34 343 71 406T170 498T307 527Q382 527 439 499T528 414T560 272Q560 181 527 117T435 20T293 -14ZM307 65Q360 65 384 110T408 248Q408 354 378 402T291 451Q241 451 213
411T185 277Q185 174 214 120T307 65ZM237 580L204 615L323 768Q335 784 343 790T362 797Q397 797 413 775T430 734Q430 718 421 703T393 676L237 580Z" />
<glyph unicode="&#xf4;" horiz-adv-x="594" d="M293 -14Q205 -14 148 20T62 111T34 241Q34 343 71 406T170 498T307 527Q382 527 439 499T528 414T560 272Q560 181 527 117T435 20T293 -14ZM307 65Q360 65 384 110T408 248Q408 354 378 402T291 451Q241 451 213
411T185 277Q185 174 214 120T307 65ZM148 580L114 617L235 768Q252 788 265 795T294 802Q315 802 327 793T359 760L474 617L440 580L294 678L148 580Z" />
<glyph unicode="&#xf5;" horiz-adv-x="594" d="M293 -14Q205 -14 148 20T62 111T34 241Q34 343 71 406T170 498T307 527Q382 527 439 499T528 414T560 272Q560 181 527 117T435 20T293 -14ZM307 65Q360 65 384 110T408 248Q408 354 378 402T291 451Q241 451 213
411T185 277Q185 174 214 120T307 65ZM378 612Q365 612 352 614T315 626T240 656Q228 661 215 665T193 669Q183 669 176 663T152 631L112 661Q139 720 163 744T220 769Q237 769 258 763T311 743Q345 729 362 722T388 712T404 710Q414 710 421 717T445 747L485 720Q459
661 435 637T378 612Z" />
<glyph unicode="&#xf6;" horiz-adv-x="594" d="M293 -14Q205 -14 148 20T62 111T34 241Q34 343 71 406T170 498T307 527Q382 527 439 499T528 414T560 272Q560 181 527 117T435 20T293 -14ZM307 65Q360 65 384 110T408 248Q408 354 378 402T291 451Q241 451 213
411T185 277Q185 174 214 120T307 65ZM405 613Q368 613 346 634T323 689Q323 722 345 743T405 764Q446 764 467 744T488 689Q488 655 465 634T405 613ZM182 613Q145 613 123 634T100 689Q100 722 122 743T182 764Q223 764 244 744T265 689Q265 655 242 634T182
613Z" />
<glyph unicode="&#xf7;" horiz-adv-x="582" d="M70 262V356H512V262H70ZM282 67Q250 67 229 84T208 138Q208 176 229 193T282 210Q317 210 339 194T361 139Q361 101 339 84T282 67ZM282 408Q250 408 229 425T208 479Q208 517 229 534T282 551Q317 551 339 535T361
480Q361 442 339 425T282 408Z" />
<glyph unicode="&#xf8;" horiz-adv-x="594" d="M11 -14L486 527H579L104 -14H11ZM293 -14Q205 -14 148 20T62 111T34 241Q34 343 71 406T170 498T307 527Q382 527 439 499T528 414T560 272Q560 181 527 117T435 20T293 -14ZM307 65Q360 65 384 110T408 248Q408
354 378 402T291 451Q241 451 213 411T185 277Q185 174 214 120T307 65Z" />
<glyph unicode="&#xf9;" horiz-adv-x="656" d="M255 -14Q192 -14 159 10T113 72T100 154V383Q100 412 95 424T65 440L17 448L24 509L231 521L243 516V200Q243 168 246 143T264 103T314 88Q360 88 387 121T414 221V384Q414 413 409 425T381 441L341 448L348 509L545
521L557 516V124Q557 99 560 87T589 71L636 63V0L444 -7L428 80H425Q409 56 388 35T334 0T255 -14ZM366 580L210 676Q191 687 182 702T173 734Q173 753 190 775T241 797Q252 797 260 791T280 768L399 615L366 580Z" />
<glyph unicode="&#xfa;" horiz-adv-x="656" d="M255 -14Q192 -14 159 10T113 72T100 154V383Q100 412 95 424T65 440L17 448L24 509L231 521L243 516V200Q243 168 246 143T264 103T314 88Q360 88 387 121T414 221V384Q414 413 409 425T381 441L341 448L348 509L545
521L557 516V124Q557 99 560 87T589 71L636 63V0L444 -7L428 80H425Q409 56 388 35T334 0T255 -14ZM259 580L226 615L345 768Q357 784 365 790T384 797Q419 797 435 775T452 734Q452 718 443 703T415 676L259 580Z" />
<glyph unicode="&#xfb;" horiz-adv-x="656" d="M255 -14Q192 -14 159 10T113 72T100 154V383Q100 412 95 424T65 440L17 448L24 509L231 521L243 516V200Q243 168 246 143T264 103T314 88Q360 88 387 121T414 221V384Q414 413 409 425T381 441L341 448L348 509L545
521L557 516V124Q557 99 560 87T589 71L636 63V0L444 -7L428 80H425Q409 56 388 35T334 0T255 -14ZM170 580L136 617L257 768Q274 788 287 795T316 802Q337 802 349 793T381 760L496 617L462 580L316 678L170 580Z" />
<glyph unicode="&#xfc;" horiz-adv-x="656" d="M255 -14Q192 -14 159 10T113 72T100 154V383Q100 412 95 424T65 440L17 448L24 509L231 521L243 516V200Q243 168 246 143T264 103T314 88Q360 88 387 121T414 221V384Q414 413 409 425T381 441L341 448L348 509L545
521L557 516V124Q557 99 560 87T589 71L636 63V0L444 -7L428 80H425Q409 56 388 35T334 0T255 -14ZM427 613Q390 613 368 634T345 689Q345 722 367 743T427 764Q468 764 489 744T510 689Q510 655 487 634T427 613ZM204 613Q167 613 145 634T122 689Q122 722 144
743T204 764Q245 764 266 744T287 689Q287 655 264 634T204 613Z" />
<glyph unicode="&#xfd;" horiz-adv-x="604" d="M111 -229Q61 -229 31 -206T0 -145Q0 -110 23 -87T81 -64Q139 -64 139 -113Q139 -121 138 -134T132 -166Q153 -163 169 -152T201 -117T233 -55L256 -3L93 394Q81 423 73 431T45 443L12 451L22 513H311V454L263 447Q243
444 239 433T244 396L331 169H336L425 389Q435 414 431 427T404 444L359 454L369 513H596V453L559 445Q541 441 534 431T512 388L335 -22Q302 -99 270 -144T200 -209T111 -229ZM270 580L237 615L356 768Q368 784 376 790T395 797Q430 797 446 775T463 734Q463 718
454 703T426 676L270 580Z" />
<glyph unicode="&#xfe;" horiz-adv-x="640" d="M29 -219V-156L71 -149Q88 -146 94 -137T100 -109V640Q100 666 93 675T62 689L17 697L25 760L232 766L243 755V443H246Q262 468 284 486T336 516T402 527Q490 527 545 465T600 276Q600 183 571 118T489 20T367 -14Q325
-14 294 -5T243 16V-104Q243 -128 251 -137T276 -148L338 -157V-219H29ZM332 73Q396 73 423 124T451 262Q451 351 425 389T346 428Q324 428 300 418T260 381T243 303V100Q257 90 281 82T332 73Z" />
<glyph unicode="&#xff;" horiz-adv-x="604" d="M111 -229Q61 -229 31 -206T0 -145Q0 -110 23 -87T81 -64Q139 -64 139 -113Q139 -121 138 -134T132 -166Q153 -163 169 -152T201 -117T233 -55L256 -3L93 394Q81 423 73 431T45 443L12 451L22 513H311V454L263 447Q243
444 239 433T244 396L331 169H336L425 389Q435 414 431 427T404 444L359 454L369 513H596V453L559 445Q541 441 534 431T512 388L335 -22Q302 -99 270 -144T200 -209T111 -229ZM435 613Q398 613 376 634T353 689Q353 722 375 743T435 764Q476 764 497 744T518 689Q518
655 495 634T435 613ZM212 613Q175 613 153 634T130 689Q130 722 152 743T212 764Q253 764 274 744T295 689Q295 655 272 634T212 613Z" />
<glyph unicode="&#x2013;" horiz-adv-x="500" d="M15 241V319H485V241H15Z" />
<glyph unicode="&#x2014;" horiz-adv-x="1000" d="M15 241V319H985V241H15Z" />
<glyph unicode="&#x2018;" horiz-adv-x="282" d="M153 500Q109 500 88 526T67 591Q67 625 80 661T122 730T195 786L229 744Q197 723 175 694T148 636H165Q197 636 215 621T234 574Q234 541 213 521T153 500Z" />
<glyph unicode="&#x2019;" horiz-adv-x="282" d="M93 487L59 529Q91 550 113 576T140 631H126Q95 631 75 649T54 699Q54 732 76 752T135 773Q179 773 201 747T223 684Q223 649 209 613T167 544T93 487Z" />
<glyph unicode="&#x201a;" horiz-adv-x="295" d="M100 -165L66 -123Q98 -102 120 -76T147 -21H133Q102 -21 82 -3T61 47Q61 80 83 100T142 121Q186 121 208 95T230 32Q230 -3 216 -40T174 -109T100 -165Z" />
<glyph unicode="&#x201c;" horiz-adv-x="503" d="M374 500Q330 500 309 526T288 591Q288 625 301 661T343 730T416 786L450 744Q418 723 396 694T369 636H386Q418 636 436 621T455 574Q455 541 434 521T374 500ZM153 500Q109 500 88 526T67 591Q67 625 80 661T122
730T195 786L229 744Q197 723 175 694T148 636H165Q197 636 215 621T234 574Q234 541 213 521T153 500Z" />
<glyph unicode="&#x201d;" horiz-adv-x="504" d="M315 487L281 529Q313 550 335 576T362 631H348Q317 631 297 649T276 699Q276 732 298 752T357 773Q401 773 423 747T445 684Q445 649 431 613T389 544T315 487ZM93 487L59 529Q91 550 113 576T140 631H126Q95
631 75 649T54 699Q54 732 76 752T135 773Q179 773 201 747T223 684Q223 649 209 613T167 544T93 487Z" />
<glyph unicode="&#x201e;" horiz-adv-x="516" d="M321 -165L287 -123Q319 -102 341 -76T368 -21H354Q323 -21 303 -3T282 47Q282 80 304 100T363 121Q407 121 429 95T451 32Q451 -3 437 -40T395 -109T321 -165ZM100 -165L66 -123Q98 -102 120 -76T147 -21H133Q102
-21 82 -3T61 47Q61 80 83 100T142 121Q186 121 208 95T230 32Q230 -3 216 -40T174 -109T100 -165Z" />
<glyph unicode="&#x2022;" horiz-adv-x="428" d="M211 178Q154 178 117 207T79 304Q79 373 116 404T211 435Q273 435 311 405T349 308Q349 239 311 209T211 178Z" />
<glyph unicode="&#x2039;" horiz-adv-x="320" d="M232 49L63 207Q35 232 35 264Q35 282 43 296T68 326L231 481L279 446L173 268L280 84L232 49Z" />
<glyph unicode="&#x203a;" horiz-adv-x="322" d="M91 49L40 87L149 265L45 446L96 483L259 323Q273 309 280 296T287 266Q287 248 279 234T254 204L91 49Z" />
</font>
</defs>
</svg>
